%TF.GenerationSoftware,KiCad,Pcbnew,7.0.6*%
%TF.CreationDate,2023-07-15T16:08:07+01:00*%
%TF.ProjectId,Pico-Powered Keyboard,5069636f-2d50-46f7-9765-726564204b65,rev?*%
%TF.SameCoordinates,Original*%
%TF.FileFunction,Soldermask,Top*%
%TF.FilePolarity,Negative*%
%FSLAX46Y46*%
G04 Gerber Fmt 4.6, Leading zero omitted, Abs format (unit mm)*
G04 Created by KiCad (PCBNEW 7.0.6) date 2023-07-15 16:08:07*
%MOMM*%
%LPD*%
G01*
G04 APERTURE LIST*
%ADD10O,1.800000X1.800000*%
%ADD11O,1.500000X1.500000*%
%ADD12O,1.700000X1.700000*%
%ADD13R,3.500000X1.700000*%
%ADD14R,1.700000X1.700000*%
%ADD15R,1.700000X3.500000*%
%ADD16C,2.500000*%
%ADD17C,4.000000*%
%ADD18C,1.750000*%
G04 APERTURE END LIST*
D10*
%TO.C,U2*%
X90355000Y-38230000D03*
X84905000Y-38230000D03*
D11*
X85205000Y-41260000D03*
X90055000Y-41260000D03*
D12*
X78740000Y-38100000D03*
D13*
X77840000Y-38100000D03*
D12*
X78740000Y-40640000D03*
D13*
X77840000Y-40640000D03*
X77840000Y-43180000D03*
D14*
X78740000Y-43180000D03*
D12*
X78740000Y-45720000D03*
D13*
X77840000Y-45720000D03*
D12*
X78740000Y-48260000D03*
D13*
X77840000Y-48260000D03*
D12*
X78740000Y-50800000D03*
D13*
X77840000Y-50800000D03*
X77840000Y-53340000D03*
D12*
X78740000Y-53340000D03*
D14*
X78740000Y-55880000D03*
D13*
X77840000Y-55880000D03*
X77840000Y-58420000D03*
D12*
X78740000Y-58420000D03*
X78740000Y-60960000D03*
D13*
X77840000Y-60960000D03*
X77840000Y-63500000D03*
D12*
X78740000Y-63500000D03*
X78740000Y-66040000D03*
D13*
X77840000Y-66040000D03*
D14*
X78740000Y-68580000D03*
D13*
X77840000Y-68580000D03*
X77840000Y-71120000D03*
D12*
X78740000Y-71120000D03*
X78740000Y-73660000D03*
D13*
X77840000Y-73660000D03*
X77840000Y-76200000D03*
D12*
X78740000Y-76200000D03*
D13*
X77840000Y-78740000D03*
D12*
X78740000Y-78740000D03*
D13*
X77840000Y-81280000D03*
D14*
X78740000Y-81280000D03*
D12*
X78740000Y-83820000D03*
D13*
X77840000Y-83820000D03*
X77840000Y-86360000D03*
D12*
X78740000Y-86360000D03*
D13*
X97420000Y-86360000D03*
D12*
X96520000Y-86360000D03*
D13*
X97420000Y-83820000D03*
D12*
X96520000Y-83820000D03*
D13*
X97420000Y-81280000D03*
D14*
X96520000Y-81280000D03*
D12*
X96520000Y-78740000D03*
D13*
X97420000Y-78740000D03*
X97420000Y-76200000D03*
D12*
X96520000Y-76200000D03*
D13*
X97420000Y-73660000D03*
D12*
X96520000Y-73660000D03*
X96520000Y-71120000D03*
D13*
X97420000Y-71120000D03*
D14*
X96520000Y-68580000D03*
D13*
X97420000Y-68580000D03*
D12*
X96520000Y-66040000D03*
D13*
X97420000Y-66040000D03*
X97420000Y-63500000D03*
D12*
X96520000Y-63500000D03*
X96520000Y-60960000D03*
D13*
X97420000Y-60960000D03*
D12*
X96520000Y-58420000D03*
D13*
X97420000Y-58420000D03*
X97420000Y-55880000D03*
D14*
X96520000Y-55880000D03*
D13*
X97420000Y-53340000D03*
D12*
X96520000Y-53340000D03*
D13*
X97420000Y-50800000D03*
D12*
X96520000Y-50800000D03*
X96520000Y-48260000D03*
D13*
X97420000Y-48260000D03*
X97420000Y-45720000D03*
D12*
X96520000Y-45720000D03*
D13*
X97420000Y-43180000D03*
D14*
X96520000Y-43180000D03*
D13*
X97420000Y-40640000D03*
D12*
X96520000Y-40640000D03*
X96520000Y-38100000D03*
D13*
X97420000Y-38100000D03*
D15*
X85090000Y-87030000D03*
D12*
X85090000Y-86130000D03*
D14*
X87630000Y-86130000D03*
D15*
X87630000Y-87030000D03*
D12*
X90170000Y-86130000D03*
D15*
X90170000Y-87030000D03*
%TD*%
D16*
%TO.C,SW8*%
X158750000Y-66350000D03*
X165100000Y-63810000D03*
D17*
X162560000Y-68890000D03*
D18*
X157480000Y-68890000D03*
X167640000Y-68890000D03*
%TD*%
D16*
%TO.C,SW7*%
X158750000Y-50800000D03*
X165100000Y-48260000D03*
D17*
X162560000Y-53340000D03*
D18*
X157480000Y-53340000D03*
X167640000Y-53340000D03*
%TD*%
D16*
%TO.C,SW6*%
X143200000Y-66350000D03*
X149550000Y-63810000D03*
D17*
X147010000Y-68890000D03*
D18*
X141930000Y-68890000D03*
X152090000Y-68890000D03*
%TD*%
D16*
%TO.C,SW5*%
X143200000Y-50800000D03*
X149550000Y-48260000D03*
D17*
X147010000Y-53340000D03*
D18*
X141930000Y-53340000D03*
X152090000Y-53340000D03*
%TD*%
D16*
%TO.C,SW4*%
X127650000Y-66350000D03*
X134000000Y-63810000D03*
D17*
X131460000Y-68890000D03*
D18*
X126380000Y-68890000D03*
X136540000Y-68890000D03*
%TD*%
D16*
%TO.C,SW3*%
X127650000Y-50800000D03*
X134000000Y-48260000D03*
D17*
X131460000Y-53340000D03*
D18*
X126380000Y-53340000D03*
X136540000Y-53340000D03*
%TD*%
D16*
%TO.C,SW2*%
X112100000Y-66350000D03*
X118450000Y-63810000D03*
D17*
X115910000Y-68890000D03*
D18*
X110830000Y-68890000D03*
X120990000Y-68890000D03*
%TD*%
D16*
%TO.C,SW1*%
X112100000Y-50800000D03*
X118450000Y-48260000D03*
D17*
X115910000Y-53340000D03*
D18*
X110830000Y-53340000D03*
X120990000Y-53340000D03*
%TD*%
M02*
