M48
; DRILL file {KiCad 7.0.6} date Sat Jul 15 16:08:12 2023
; FORMAT={-:-/ absolute / inch / decimal}
; #@! TF.CreationDate,2023-07-15T16:08:12+01:00
; #@! TF.GenerationSoftware,Kicad,Pcbnew,7.0.6
; #@! TF.FileFunction,NonPlated,1,2,NPTH
FMAT,2
INCH
; #@! TA.AperFunction,NonPlated,NPTH,ComponentDrill
T1C0.0591
; #@! TA.AperFunction,NonPlated,NPTH,ComponentDrill
T2C0.0689
; #@! TA.AperFunction,NonPlated,NPTH,ComponentDrill
T3C0.0709
; #@! TA.AperFunction,NonPlated,NPTH,ComponentDrill
T4C0.1575
%
G90
G05
T1
X3.3545Y-1.6244
X3.5455Y-1.6244
T2
X4.3634Y-2.1
X4.3634Y-2.7122
X4.7634Y-2.1
X4.7634Y-2.7122
X4.9756Y-2.1
X4.9756Y-2.7122
X5.3756Y-2.1
X5.3756Y-2.7122
X5.5878Y-2.1
X5.5878Y-2.7122
X5.9878Y-2.1
X5.9878Y-2.7122
X6.2Y-2.1
X6.2Y-2.7122
X6.6Y-2.1
X6.6Y-2.7122
T3
X3.3427Y-1.5051
X3.5573Y-1.5051
T4
X4.5634Y-2.1
X4.5634Y-2.7122
X5.1756Y-2.1
X5.1756Y-2.7122
X5.7878Y-2.1
X5.7878Y-2.7122
X6.4Y-2.1
X6.4Y-2.7122
T0
M30
