%TF.GenerationSoftware,KiCad,Pcbnew,7.0.6*%
%TF.CreationDate,2023-07-15T16:08:07+01:00*%
%TF.ProjectId,Pico-Powered Keyboard,5069636f-2d50-46f7-9765-726564204b65,rev?*%
%TF.SameCoordinates,Original*%
%TF.FileFunction,Copper,L2,Bot*%
%TF.FilePolarity,Positive*%
%FSLAX46Y46*%
G04 Gerber Fmt 4.6, Leading zero omitted, Abs format (unit mm)*
G04 Created by KiCad (PCBNEW 7.0.6) date 2023-07-15 16:08:07*
%MOMM*%
%LPD*%
G01*
G04 APERTURE LIST*
%TA.AperFunction,NonConductor*%
%ADD10C,0.200000*%
%TD*%
%TA.AperFunction,ComponentPad*%
%ADD11O,1.700000X1.700000*%
%TD*%
%TA.AperFunction,ComponentPad*%
%ADD12R,1.700000X1.700000*%
%TD*%
%TA.AperFunction,ComponentPad*%
%ADD13C,2.500000*%
%TD*%
%TA.AperFunction,Conductor*%
%ADD14C,0.250000*%
%TD*%
G04 APERTURE END LIST*
D10*
X68580000Y-30480000D02*
X175260000Y-30480000D01*
X175260000Y-93980000D01*
X68580000Y-93980000D01*
X68580000Y-30480000D01*
D11*
%TO.P,U2,1,GPIO0*%
%TO.N,Net-(U2-GPIO0)*%
X78740000Y-38100000D03*
%TO.P,U2,2,GPIO1*%
%TO.N,Net-(U2-GPIO1)*%
X78740000Y-40640000D03*
D12*
%TO.P,U2,3,GND*%
%TO.N,unconnected-(U2-GND-Pad3)*%
X78740000Y-43180000D03*
D11*
%TO.P,U2,4,GPIO2*%
%TO.N,Net-(U2-GPIO2)*%
X78740000Y-45720000D03*
%TO.P,U2,5,GPIO3*%
%TO.N,Net-(U2-GPIO3)*%
X78740000Y-48260000D03*
%TO.P,U2,6,GPIO4*%
%TO.N,Net-(U2-GPIO4)*%
X78740000Y-50800000D03*
%TO.P,U2,7,GPIO5*%
%TO.N,Net-(U2-GPIO5)*%
X78740000Y-53340000D03*
D12*
%TO.P,U2,8,GND*%
%TO.N,unconnected-(U2-GND-Pad8)*%
X78740000Y-55880000D03*
D11*
%TO.P,U2,9,GPIO6*%
%TO.N,Net-(U2-GPIO6)*%
X78740000Y-58420000D03*
%TO.P,U2,10,GPIO7*%
%TO.N,Net-(U2-GPIO7)*%
X78740000Y-60960000D03*
%TO.P,U2,11,GPIO8*%
%TO.N,unconnected-(U2-GPIO8-Pad11)*%
X78740000Y-63500000D03*
%TO.P,U2,12,GPIO9*%
%TO.N,unconnected-(U2-GPIO9-Pad12)*%
X78740000Y-66040000D03*
D12*
%TO.P,U2,13,GND*%
%TO.N,unconnected-(U2-GND-Pad13)*%
X78740000Y-68580000D03*
D11*
%TO.P,U2,14,GPIO10*%
%TO.N,unconnected-(U2-GPIO10-Pad14)*%
X78740000Y-71120000D03*
%TO.P,U2,15,GPIO11*%
%TO.N,unconnected-(U2-GPIO11-Pad15)*%
X78740000Y-73660000D03*
%TO.P,U2,16,GPIO12*%
%TO.N,unconnected-(U2-GPIO12-Pad16)*%
X78740000Y-76200000D03*
%TO.P,U2,17,GPIO13*%
%TO.N,unconnected-(U2-GPIO13-Pad17)*%
X78740000Y-78740000D03*
D12*
%TO.P,U2,18,GND*%
%TO.N,unconnected-(U2-GND-Pad18)*%
X78740000Y-81280000D03*
D11*
%TO.P,U2,19,GPIO14*%
%TO.N,unconnected-(U2-GPIO14-Pad19)*%
X78740000Y-83820000D03*
%TO.P,U2,20,GPIO15*%
%TO.N,unconnected-(U2-GPIO15-Pad20)*%
X78740000Y-86360000D03*
%TO.P,U2,21,GPIO16*%
%TO.N,unconnected-(U2-GPIO16-Pad21)*%
X96520000Y-86360000D03*
%TO.P,U2,22,GPIO17*%
%TO.N,unconnected-(U2-GPIO17-Pad22)*%
X96520000Y-83820000D03*
D12*
%TO.P,U2,23,GND*%
%TO.N,Net-(SW1-Pad1)*%
X96520000Y-81280000D03*
D11*
%TO.P,U2,24,GPIO18*%
%TO.N,unconnected-(U2-GPIO18-Pad24)*%
X96520000Y-78740000D03*
%TO.P,U2,25,GPIO19*%
%TO.N,unconnected-(U2-GPIO19-Pad25)*%
X96520000Y-76200000D03*
%TO.P,U2,26,GPIO20*%
%TO.N,unconnected-(U2-GPIO20-Pad26)*%
X96520000Y-73660000D03*
%TO.P,U2,27,GPIO21*%
%TO.N,unconnected-(U2-GPIO21-Pad27)*%
X96520000Y-71120000D03*
D12*
%TO.P,U2,28,GND*%
%TO.N,unconnected-(U2-GND-Pad28)*%
X96520000Y-68580000D03*
D11*
%TO.P,U2,29,GPIO22*%
%TO.N,unconnected-(U2-GPIO22-Pad29)*%
X96520000Y-66040000D03*
%TO.P,U2,30,RUN*%
%TO.N,unconnected-(U2-RUN-Pad30)*%
X96520000Y-63500000D03*
%TO.P,U2,31,GPIO26_ADC0*%
%TO.N,unconnected-(U2-GPIO26_ADC0-Pad31)*%
X96520000Y-60960000D03*
%TO.P,U2,32,GPIO27_ADC1*%
%TO.N,unconnected-(U2-GPIO27_ADC1-Pad32)*%
X96520000Y-58420000D03*
D12*
%TO.P,U2,33,AGND*%
%TO.N,unconnected-(U2-AGND-Pad33)*%
X96520000Y-55880000D03*
D11*
%TO.P,U2,34,GPIO28_ADC2*%
%TO.N,unconnected-(U2-GPIO28_ADC2-Pad34)*%
X96520000Y-53340000D03*
%TO.P,U2,35,ADC_VREF*%
%TO.N,unconnected-(U2-ADC_VREF-Pad35)*%
X96520000Y-50800000D03*
%TO.P,U2,36,3V3*%
%TO.N,unconnected-(U2-3V3-Pad36)*%
X96520000Y-48260000D03*
%TO.P,U2,37,3V3_EN*%
%TO.N,unconnected-(U2-3V3_EN-Pad37)*%
X96520000Y-45720000D03*
D12*
%TO.P,U2,38,GND*%
%TO.N,unconnected-(U2-GND-Pad38)*%
X96520000Y-43180000D03*
D11*
%TO.P,U2,39,VSYS*%
%TO.N,unconnected-(U2-VSYS-Pad39)*%
X96520000Y-40640000D03*
%TO.P,U2,40,VBUS*%
%TO.N,unconnected-(U2-VBUS-Pad40)*%
X96520000Y-38100000D03*
%TO.P,U2,41,SWCLK*%
%TO.N,unconnected-(U2-SWCLK-Pad41)*%
X85090000Y-86130000D03*
D12*
%TO.P,U2,42,GND*%
%TO.N,unconnected-(U2-GND-Pad42)*%
X87630000Y-86130000D03*
D11*
%TO.P,U2,43,SWDIO*%
%TO.N,unconnected-(U2-SWDIO-Pad43)*%
X90170000Y-86130000D03*
%TD*%
D13*
%TO.P,SW8,1*%
%TO.N,Net-(SW1-Pad1)*%
X158750000Y-66350000D03*
%TO.P,SW8,2*%
%TO.N,Net-(U2-GPIO7)*%
X165100000Y-63810000D03*
%TD*%
%TO.P,SW7,1*%
%TO.N,Net-(SW1-Pad1)*%
X158750000Y-50800000D03*
%TO.P,SW7,2*%
%TO.N,Net-(U2-GPIO6)*%
X165100000Y-48260000D03*
%TD*%
%TO.P,SW6,1*%
%TO.N,Net-(SW1-Pad1)*%
X143200000Y-66350000D03*
%TO.P,SW6,2*%
%TO.N,Net-(U2-GPIO5)*%
X149550000Y-63810000D03*
%TD*%
%TO.P,SW5,1*%
%TO.N,Net-(SW1-Pad1)*%
X143200000Y-50800000D03*
%TO.P,SW5,2*%
%TO.N,Net-(U2-GPIO4)*%
X149550000Y-48260000D03*
%TD*%
%TO.P,SW4,1*%
%TO.N,Net-(SW1-Pad1)*%
X127650000Y-66350000D03*
%TO.P,SW4,2*%
%TO.N,Net-(U2-GPIO3)*%
X134000000Y-63810000D03*
%TD*%
%TO.P,SW3,1*%
%TO.N,Net-(SW1-Pad1)*%
X127650000Y-50800000D03*
%TO.P,SW3,2*%
%TO.N,Net-(U2-GPIO2)*%
X134000000Y-48260000D03*
%TD*%
%TO.P,SW2,1*%
%TO.N,Net-(SW1-Pad1)*%
X112100000Y-66350000D03*
%TO.P,SW2,2*%
%TO.N,Net-(U2-GPIO1)*%
X118450000Y-63810000D03*
%TD*%
%TO.P,SW1,1*%
%TO.N,Net-(SW1-Pad1)*%
X112100000Y-50800000D03*
%TO.P,SW1,2*%
%TO.N,Net-(U2-GPIO0)*%
X118450000Y-48260000D03*
%TD*%
D14*
%TO.N,Net-(SW1-Pad1)*%
X143200000Y-54300000D02*
X147320000Y-58420000D01*
X143200000Y-50800000D02*
X143200000Y-54300000D01*
X147320000Y-58420000D02*
X132080000Y-58420000D01*
X158750000Y-58420000D02*
X147320000Y-58420000D01*
X127650000Y-53990000D02*
X132080000Y-58420000D01*
X127650000Y-50800000D02*
X127650000Y-53990000D01*
X132080000Y-58420000D02*
X117200000Y-58420000D01*
X112100000Y-53320000D02*
X112100000Y-50800000D01*
X117200000Y-58420000D02*
X112100000Y-53320000D01*
X158750000Y-58420000D02*
X158750000Y-50800000D01*
X158750000Y-66350000D02*
X158750000Y-58420000D01*
X112100000Y-80940000D02*
X111760000Y-81280000D01*
X112100000Y-66350000D02*
X112100000Y-80940000D01*
X111760000Y-81280000D02*
X127000000Y-81280000D01*
X96520000Y-81280000D02*
X111760000Y-81280000D01*
X127650000Y-80630000D02*
X127000000Y-81280000D01*
X127650000Y-66350000D02*
X127650000Y-80630000D01*
X127000000Y-81280000D02*
X143322233Y-81280000D01*
X143200000Y-66350000D02*
X143200000Y-81157767D01*
X143200000Y-81157767D02*
X143322233Y-81280000D01*
X158252233Y-66350000D02*
X158750000Y-66350000D01*
X143322233Y-81280000D02*
X158252233Y-66350000D01*
%TD*%
M02*
