%TF.GenerationSoftware,KiCad,Pcbnew,7.0.6*%
%TF.CreationDate,2023-07-15T16:08:07+01:00*%
%TF.ProjectId,Pico-Powered Keyboard,5069636f-2d50-46f7-9765-726564204b65,rev?*%
%TF.SameCoordinates,Original*%
%TF.FileFunction,Legend,Top*%
%TF.FilePolarity,Positive*%
%FSLAX46Y46*%
G04 Gerber Fmt 4.6, Leading zero omitted, Abs format (unit mm)*
G04 Created by KiCad (PCBNEW 7.0.6) date 2023-07-15 16:08:07*
%MOMM*%
%LPD*%
G01*
G04 APERTURE LIST*
%ADD10C,0.150000*%
%ADD11C,0.120000*%
G04 APERTURE END LIST*
D10*
X86868095Y-61684819D02*
X86868095Y-62494342D01*
X86868095Y-62494342D02*
X86915714Y-62589580D01*
X86915714Y-62589580D02*
X86963333Y-62637200D01*
X86963333Y-62637200D02*
X87058571Y-62684819D01*
X87058571Y-62684819D02*
X87249047Y-62684819D01*
X87249047Y-62684819D02*
X87344285Y-62637200D01*
X87344285Y-62637200D02*
X87391904Y-62589580D01*
X87391904Y-62589580D02*
X87439523Y-62494342D01*
X87439523Y-62494342D02*
X87439523Y-61684819D01*
X87868095Y-61780057D02*
X87915714Y-61732438D01*
X87915714Y-61732438D02*
X88010952Y-61684819D01*
X88010952Y-61684819D02*
X88249047Y-61684819D01*
X88249047Y-61684819D02*
X88344285Y-61732438D01*
X88344285Y-61732438D02*
X88391904Y-61780057D01*
X88391904Y-61780057D02*
X88439523Y-61875295D01*
X88439523Y-61875295D02*
X88439523Y-61970533D01*
X88439523Y-61970533D02*
X88391904Y-62113390D01*
X88391904Y-62113390D02*
X87820476Y-62684819D01*
X87820476Y-62684819D02*
X88439523Y-62684819D01*
X73473998Y-74050868D02*
X73393185Y-74077805D01*
X73393185Y-74077805D02*
X73312373Y-74158618D01*
X73312373Y-74158618D02*
X73258498Y-74266367D01*
X73258498Y-74266367D02*
X73258498Y-74374117D01*
X73258498Y-74374117D02*
X73285436Y-74454929D01*
X73285436Y-74454929D02*
X73366248Y-74589616D01*
X73366248Y-74589616D02*
X73447060Y-74670428D01*
X73447060Y-74670428D02*
X73581747Y-74751241D01*
X73581747Y-74751241D02*
X73662560Y-74778178D01*
X73662560Y-74778178D02*
X73770309Y-74778178D01*
X73770309Y-74778178D02*
X73878059Y-74724303D01*
X73878059Y-74724303D02*
X73931934Y-74670428D01*
X73931934Y-74670428D02*
X73985808Y-74562679D01*
X73985808Y-74562679D02*
X73985808Y-74508804D01*
X73985808Y-74508804D02*
X73797247Y-74320242D01*
X73797247Y-74320242D02*
X73689497Y-74427992D01*
X74282120Y-74320242D02*
X73716434Y-73754557D01*
X73716434Y-73754557D02*
X73931934Y-73539057D01*
X73931934Y-73539057D02*
X74012746Y-73512120D01*
X74012746Y-73512120D02*
X74066621Y-73512120D01*
X74066621Y-73512120D02*
X74147433Y-73539057D01*
X74147433Y-73539057D02*
X74228245Y-73619870D01*
X74228245Y-73619870D02*
X74255182Y-73700682D01*
X74255182Y-73700682D02*
X74255182Y-73754557D01*
X74255182Y-73754557D02*
X74228245Y-73835369D01*
X74228245Y-73835369D02*
X74012746Y-74050868D01*
X75144117Y-73458245D02*
X74820868Y-73781494D01*
X74982492Y-73619870D02*
X74416807Y-73054184D01*
X74416807Y-73054184D02*
X74443744Y-73188871D01*
X74443744Y-73188871D02*
X74443744Y-73296621D01*
X74443744Y-73296621D02*
X74416807Y-73377433D01*
X75682865Y-72919497D02*
X75359616Y-73242746D01*
X75521240Y-73081121D02*
X74955555Y-72515436D01*
X74955555Y-72515436D02*
X74982492Y-72650123D01*
X74982492Y-72650123D02*
X74982492Y-72757873D01*
X74982492Y-72757873D02*
X74955555Y-72838685D01*
X99781873Y-56971240D02*
X100051247Y-56701866D01*
X99889623Y-57186739D02*
X99512499Y-56432492D01*
X99512499Y-56432492D02*
X100266746Y-56809615D01*
X100212871Y-55785994D02*
X100132059Y-55812932D01*
X100132059Y-55812932D02*
X100051247Y-55893744D01*
X100051247Y-55893744D02*
X99997372Y-56001494D01*
X99997372Y-56001494D02*
X99997372Y-56109243D01*
X99997372Y-56109243D02*
X100024310Y-56190055D01*
X100024310Y-56190055D02*
X100105122Y-56324742D01*
X100105122Y-56324742D02*
X100185934Y-56405555D01*
X100185934Y-56405555D02*
X100320621Y-56486367D01*
X100320621Y-56486367D02*
X100401433Y-56513304D01*
X100401433Y-56513304D02*
X100509183Y-56513304D01*
X100509183Y-56513304D02*
X100616932Y-56459429D01*
X100616932Y-56459429D02*
X100670807Y-56405555D01*
X100670807Y-56405555D02*
X100724682Y-56297805D01*
X100724682Y-56297805D02*
X100724682Y-56243930D01*
X100724682Y-56243930D02*
X100536120Y-56055368D01*
X100536120Y-56055368D02*
X100428371Y-56163118D01*
X101020993Y-56055368D02*
X100455308Y-55489683D01*
X100455308Y-55489683D02*
X101344242Y-55732120D01*
X101344242Y-55732120D02*
X100778557Y-55166434D01*
X101613616Y-55462746D02*
X101047931Y-54897060D01*
X101047931Y-54897060D02*
X101182618Y-54762373D01*
X101182618Y-54762373D02*
X101290367Y-54708498D01*
X101290367Y-54708498D02*
X101398117Y-54708498D01*
X101398117Y-54708498D02*
X101478929Y-54735436D01*
X101478929Y-54735436D02*
X101613616Y-54816248D01*
X101613616Y-54816248D02*
X101694428Y-54897060D01*
X101694428Y-54897060D02*
X101775241Y-55031747D01*
X101775241Y-55031747D02*
X101802178Y-55112560D01*
X101802178Y-55112560D02*
X101802178Y-55220309D01*
X101802178Y-55220309D02*
X101748303Y-55328059D01*
X101748303Y-55328059D02*
X101613616Y-55462746D01*
X99716435Y-81428431D02*
X99635623Y-81455368D01*
X99635623Y-81455368D02*
X99554811Y-81536180D01*
X99554811Y-81536180D02*
X99500936Y-81643930D01*
X99500936Y-81643930D02*
X99500936Y-81751680D01*
X99500936Y-81751680D02*
X99527873Y-81832492D01*
X99527873Y-81832492D02*
X99608685Y-81967179D01*
X99608685Y-81967179D02*
X99689498Y-82047991D01*
X99689498Y-82047991D02*
X99824185Y-82128803D01*
X99824185Y-82128803D02*
X99904997Y-82155741D01*
X99904997Y-82155741D02*
X100012746Y-82155741D01*
X100012746Y-82155741D02*
X100120496Y-82101866D01*
X100120496Y-82101866D02*
X100174371Y-82047991D01*
X100174371Y-82047991D02*
X100228246Y-81940241D01*
X100228246Y-81940241D02*
X100228246Y-81886367D01*
X100228246Y-81886367D02*
X100039684Y-81697805D01*
X100039684Y-81697805D02*
X99931934Y-81805554D01*
X100524557Y-81697805D02*
X99958872Y-81132119D01*
X99958872Y-81132119D02*
X100847806Y-81374556D01*
X100847806Y-81374556D02*
X100282120Y-80808871D01*
X101117180Y-81105182D02*
X100551494Y-80539497D01*
X100551494Y-80539497D02*
X100686181Y-80404810D01*
X100686181Y-80404810D02*
X100793931Y-80350935D01*
X100793931Y-80350935D02*
X100901680Y-80350935D01*
X100901680Y-80350935D02*
X100982493Y-80377872D01*
X100982493Y-80377872D02*
X101117180Y-80458685D01*
X101117180Y-80458685D02*
X101197992Y-80539497D01*
X101197992Y-80539497D02*
X101278804Y-80674184D01*
X101278804Y-80674184D02*
X101305741Y-80754996D01*
X101305741Y-80754996D02*
X101305741Y-80862746D01*
X101305741Y-80862746D02*
X101251867Y-80970495D01*
X101251867Y-80970495D02*
X101117180Y-81105182D01*
X99583406Y-38757585D02*
X100337653Y-39134709D01*
X100337653Y-39134709D02*
X99960529Y-38380462D01*
X100607027Y-38272712D02*
X100714776Y-38218838D01*
X100714776Y-38218838D02*
X100768651Y-38218838D01*
X100768651Y-38218838D02*
X100849463Y-38245775D01*
X100849463Y-38245775D02*
X100930276Y-38326587D01*
X100930276Y-38326587D02*
X100957213Y-38407399D01*
X100957213Y-38407399D02*
X100957213Y-38461274D01*
X100957213Y-38461274D02*
X100930276Y-38542086D01*
X100930276Y-38542086D02*
X100714776Y-38757586D01*
X100714776Y-38757586D02*
X100149091Y-38191900D01*
X100149091Y-38191900D02*
X100337653Y-38003338D01*
X100337653Y-38003338D02*
X100418465Y-37976401D01*
X100418465Y-37976401D02*
X100472340Y-37976401D01*
X100472340Y-37976401D02*
X100553152Y-38003338D01*
X100553152Y-38003338D02*
X100607027Y-38057213D01*
X100607027Y-38057213D02*
X100633964Y-38138025D01*
X100633964Y-38138025D02*
X100633964Y-38191900D01*
X100633964Y-38191900D02*
X100607027Y-38272712D01*
X100607027Y-38272712D02*
X100418465Y-38461274D01*
X100714776Y-37626215D02*
X101172712Y-38084151D01*
X101172712Y-38084151D02*
X101253524Y-38111088D01*
X101253524Y-38111088D02*
X101307399Y-38111088D01*
X101307399Y-38111088D02*
X101388211Y-38084151D01*
X101388211Y-38084151D02*
X101495961Y-37976401D01*
X101495961Y-37976401D02*
X101522898Y-37895589D01*
X101522898Y-37895589D02*
X101522898Y-37841714D01*
X101522898Y-37841714D02*
X101495961Y-37760902D01*
X101495961Y-37760902D02*
X101038025Y-37302966D01*
X101819210Y-37599277D02*
X101926959Y-37545403D01*
X101926959Y-37545403D02*
X102061646Y-37410716D01*
X102061646Y-37410716D02*
X102088584Y-37329903D01*
X102088584Y-37329903D02*
X102088584Y-37276029D01*
X102088584Y-37276029D02*
X102061646Y-37195216D01*
X102061646Y-37195216D02*
X102007771Y-37141342D01*
X102007771Y-37141342D02*
X101926959Y-37114404D01*
X101926959Y-37114404D02*
X101873084Y-37114404D01*
X101873084Y-37114404D02*
X101792272Y-37141342D01*
X101792272Y-37141342D02*
X101657585Y-37222154D01*
X101657585Y-37222154D02*
X101576773Y-37249091D01*
X101576773Y-37249091D02*
X101522898Y-37249091D01*
X101522898Y-37249091D02*
X101442086Y-37222154D01*
X101442086Y-37222154D02*
X101388211Y-37168279D01*
X101388211Y-37168279D02*
X101361274Y-37087467D01*
X101361274Y-37087467D02*
X101361274Y-37033592D01*
X101361274Y-37033592D02*
X101388211Y-36952780D01*
X101388211Y-36952780D02*
X101522898Y-36818093D01*
X101522898Y-36818093D02*
X101630648Y-36764218D01*
X99716435Y-43328431D02*
X99635623Y-43355368D01*
X99635623Y-43355368D02*
X99554811Y-43436180D01*
X99554811Y-43436180D02*
X99500936Y-43543930D01*
X99500936Y-43543930D02*
X99500936Y-43651680D01*
X99500936Y-43651680D02*
X99527873Y-43732492D01*
X99527873Y-43732492D02*
X99608685Y-43867179D01*
X99608685Y-43867179D02*
X99689498Y-43947991D01*
X99689498Y-43947991D02*
X99824185Y-44028803D01*
X99824185Y-44028803D02*
X99904997Y-44055741D01*
X99904997Y-44055741D02*
X100012746Y-44055741D01*
X100012746Y-44055741D02*
X100120496Y-44001866D01*
X100120496Y-44001866D02*
X100174371Y-43947991D01*
X100174371Y-43947991D02*
X100228246Y-43840241D01*
X100228246Y-43840241D02*
X100228246Y-43786367D01*
X100228246Y-43786367D02*
X100039684Y-43597805D01*
X100039684Y-43597805D02*
X99931934Y-43705554D01*
X100524557Y-43597805D02*
X99958872Y-43032119D01*
X99958872Y-43032119D02*
X100847806Y-43274556D01*
X100847806Y-43274556D02*
X100282120Y-42708871D01*
X101117180Y-43005182D02*
X100551494Y-42439497D01*
X100551494Y-42439497D02*
X100686181Y-42304810D01*
X100686181Y-42304810D02*
X100793931Y-42250935D01*
X100793931Y-42250935D02*
X100901680Y-42250935D01*
X100901680Y-42250935D02*
X100982493Y-42277872D01*
X100982493Y-42277872D02*
X101117180Y-42358685D01*
X101117180Y-42358685D02*
X101197992Y-42439497D01*
X101197992Y-42439497D02*
X101278804Y-42574184D01*
X101278804Y-42574184D02*
X101305741Y-42654996D01*
X101305741Y-42654996D02*
X101305741Y-42762746D01*
X101305741Y-42762746D02*
X101251867Y-42870495D01*
X101251867Y-42870495D02*
X101117180Y-43005182D01*
X73619998Y-79130868D02*
X73539185Y-79157805D01*
X73539185Y-79157805D02*
X73458373Y-79238618D01*
X73458373Y-79238618D02*
X73404498Y-79346367D01*
X73404498Y-79346367D02*
X73404498Y-79454117D01*
X73404498Y-79454117D02*
X73431436Y-79534929D01*
X73431436Y-79534929D02*
X73512248Y-79669616D01*
X73512248Y-79669616D02*
X73593060Y-79750428D01*
X73593060Y-79750428D02*
X73727747Y-79831241D01*
X73727747Y-79831241D02*
X73808560Y-79858178D01*
X73808560Y-79858178D02*
X73916309Y-79858178D01*
X73916309Y-79858178D02*
X74024059Y-79804303D01*
X74024059Y-79804303D02*
X74077934Y-79750428D01*
X74077934Y-79750428D02*
X74131808Y-79642679D01*
X74131808Y-79642679D02*
X74131808Y-79588804D01*
X74131808Y-79588804D02*
X73943247Y-79400242D01*
X73943247Y-79400242D02*
X73835497Y-79507992D01*
X74428120Y-79400242D02*
X73862434Y-78834557D01*
X73862434Y-78834557D02*
X74077934Y-78619057D01*
X74077934Y-78619057D02*
X74158746Y-78592120D01*
X74158746Y-78592120D02*
X74212621Y-78592120D01*
X74212621Y-78592120D02*
X74293433Y-78619057D01*
X74293433Y-78619057D02*
X74374245Y-78699870D01*
X74374245Y-78699870D02*
X74401182Y-78780682D01*
X74401182Y-78780682D02*
X74401182Y-78834557D01*
X74401182Y-78834557D02*
X74374245Y-78915369D01*
X74374245Y-78915369D02*
X74158746Y-79130868D01*
X75290117Y-78538245D02*
X74966868Y-78861494D01*
X75128492Y-78699870D02*
X74562807Y-78134184D01*
X74562807Y-78134184D02*
X74589744Y-78268871D01*
X74589744Y-78268871D02*
X74589744Y-78376621D01*
X74589744Y-78376621D02*
X74562807Y-78457433D01*
X74912993Y-77783998D02*
X75263179Y-77433812D01*
X75263179Y-77433812D02*
X75290117Y-77837873D01*
X75290117Y-77837873D02*
X75370929Y-77757060D01*
X75370929Y-77757060D02*
X75451741Y-77730123D01*
X75451741Y-77730123D02*
X75505616Y-77730123D01*
X75505616Y-77730123D02*
X75586428Y-77757060D01*
X75586428Y-77757060D02*
X75721115Y-77891747D01*
X75721115Y-77891747D02*
X75748053Y-77972560D01*
X75748053Y-77972560D02*
X75748053Y-78026434D01*
X75748053Y-78026434D02*
X75721115Y-78107247D01*
X75721115Y-78107247D02*
X75559491Y-78268871D01*
X75559491Y-78268871D02*
X75478679Y-78295808D01*
X75478679Y-78295808D02*
X75424804Y-78295808D01*
X99785064Y-51764049D02*
X100054438Y-51494675D01*
X99892813Y-51979549D02*
X99515690Y-51225301D01*
X99515690Y-51225301D02*
X100269937Y-51602425D01*
X100458499Y-51413863D02*
X99892813Y-50848178D01*
X99892813Y-50848178D02*
X100027500Y-50713491D01*
X100027500Y-50713491D02*
X100135250Y-50659616D01*
X100135250Y-50659616D02*
X100242999Y-50659616D01*
X100242999Y-50659616D02*
X100323812Y-50686553D01*
X100323812Y-50686553D02*
X100458499Y-50767366D01*
X100458499Y-50767366D02*
X100539311Y-50848178D01*
X100539311Y-50848178D02*
X100620123Y-50982865D01*
X100620123Y-50982865D02*
X100647060Y-51063677D01*
X100647060Y-51063677D02*
X100647060Y-51171427D01*
X100647060Y-51171427D02*
X100593186Y-51279176D01*
X100593186Y-51279176D02*
X100458499Y-51413863D01*
X101293558Y-50471054D02*
X101293558Y-50524929D01*
X101293558Y-50524929D02*
X101239683Y-50632679D01*
X101239683Y-50632679D02*
X101185808Y-50686553D01*
X101185808Y-50686553D02*
X101078059Y-50740428D01*
X101078059Y-50740428D02*
X100970309Y-50740428D01*
X100970309Y-50740428D02*
X100889497Y-50713491D01*
X100889497Y-50713491D02*
X100754810Y-50632679D01*
X100754810Y-50632679D02*
X100673998Y-50551866D01*
X100673998Y-50551866D02*
X100593186Y-50417179D01*
X100593186Y-50417179D02*
X100566248Y-50336367D01*
X100566248Y-50336367D02*
X100566248Y-50228618D01*
X100566248Y-50228618D02*
X100620123Y-50120868D01*
X100620123Y-50120868D02*
X100673998Y-50066993D01*
X100673998Y-50066993D02*
X100781747Y-50013118D01*
X100781747Y-50013118D02*
X100835622Y-50013118D01*
X101509057Y-50471054D02*
X101940056Y-50040056D01*
X101374370Y-49366621D02*
X102128618Y-49743744D01*
X102128618Y-49743744D02*
X101751494Y-48989497D01*
X102828990Y-49043372D02*
X102371054Y-48962560D01*
X102505741Y-49366621D02*
X101940056Y-48800935D01*
X101940056Y-48800935D02*
X102155555Y-48585436D01*
X102155555Y-48585436D02*
X102236367Y-48558499D01*
X102236367Y-48558499D02*
X102290242Y-48558499D01*
X102290242Y-48558499D02*
X102371054Y-48585436D01*
X102371054Y-48585436D02*
X102451866Y-48666248D01*
X102451866Y-48666248D02*
X102478804Y-48747061D01*
X102478804Y-48747061D02*
X102478804Y-48800935D01*
X102478804Y-48800935D02*
X102451866Y-48881748D01*
X102451866Y-48881748D02*
X102236367Y-49097247D01*
X102775115Y-48504624D02*
X102963677Y-48316062D01*
X103340800Y-48531561D02*
X103071426Y-48800935D01*
X103071426Y-48800935D02*
X102505741Y-48235250D01*
X102505741Y-48235250D02*
X102775115Y-47965876D01*
X103475488Y-47804251D02*
X103286926Y-47992813D01*
X103583237Y-48289125D02*
X103017552Y-47723439D01*
X103017552Y-47723439D02*
X103286926Y-47454065D01*
X74143372Y-50921494D02*
X74062560Y-50948431D01*
X74062560Y-50948431D02*
X73981748Y-51029243D01*
X73981748Y-51029243D02*
X73927873Y-51136993D01*
X73927873Y-51136993D02*
X73927873Y-51244742D01*
X73927873Y-51244742D02*
X73954810Y-51325555D01*
X73954810Y-51325555D02*
X74035623Y-51460242D01*
X74035623Y-51460242D02*
X74116435Y-51541054D01*
X74116435Y-51541054D02*
X74251122Y-51621866D01*
X74251122Y-51621866D02*
X74331934Y-51648803D01*
X74331934Y-51648803D02*
X74439684Y-51648803D01*
X74439684Y-51648803D02*
X74547433Y-51594929D01*
X74547433Y-51594929D02*
X74601308Y-51541054D01*
X74601308Y-51541054D02*
X74655183Y-51433304D01*
X74655183Y-51433304D02*
X74655183Y-51379429D01*
X74655183Y-51379429D02*
X74466621Y-51190868D01*
X74466621Y-51190868D02*
X74358871Y-51298617D01*
X74951494Y-51190868D02*
X74385809Y-50625182D01*
X74385809Y-50625182D02*
X74601308Y-50409683D01*
X74601308Y-50409683D02*
X74682120Y-50382746D01*
X74682120Y-50382746D02*
X74735995Y-50382746D01*
X74735995Y-50382746D02*
X74816807Y-50409683D01*
X74816807Y-50409683D02*
X74897619Y-50490495D01*
X74897619Y-50490495D02*
X74924557Y-50571307D01*
X74924557Y-50571307D02*
X74924557Y-50625182D01*
X74924557Y-50625182D02*
X74897619Y-50705994D01*
X74897619Y-50705994D02*
X74682120Y-50921494D01*
X75382493Y-50005622D02*
X75759616Y-50382746D01*
X75032306Y-49924810D02*
X75301680Y-50463558D01*
X75301680Y-50463558D02*
X75651867Y-50113372D01*
X74243372Y-61051494D02*
X74162560Y-61078431D01*
X74162560Y-61078431D02*
X74081748Y-61159243D01*
X74081748Y-61159243D02*
X74027873Y-61266993D01*
X74027873Y-61266993D02*
X74027873Y-61374742D01*
X74027873Y-61374742D02*
X74054810Y-61455555D01*
X74054810Y-61455555D02*
X74135623Y-61590242D01*
X74135623Y-61590242D02*
X74216435Y-61671054D01*
X74216435Y-61671054D02*
X74351122Y-61751866D01*
X74351122Y-61751866D02*
X74431934Y-61778803D01*
X74431934Y-61778803D02*
X74539684Y-61778803D01*
X74539684Y-61778803D02*
X74647433Y-61724929D01*
X74647433Y-61724929D02*
X74701308Y-61671054D01*
X74701308Y-61671054D02*
X74755183Y-61563304D01*
X74755183Y-61563304D02*
X74755183Y-61509429D01*
X74755183Y-61509429D02*
X74566621Y-61320868D01*
X74566621Y-61320868D02*
X74458871Y-61428617D01*
X75051494Y-61320868D02*
X74485809Y-60755182D01*
X74485809Y-60755182D02*
X74701308Y-60539683D01*
X74701308Y-60539683D02*
X74782120Y-60512746D01*
X74782120Y-60512746D02*
X74835995Y-60512746D01*
X74835995Y-60512746D02*
X74916807Y-60539683D01*
X74916807Y-60539683D02*
X74997619Y-60620495D01*
X74997619Y-60620495D02*
X75024557Y-60701307D01*
X75024557Y-60701307D02*
X75024557Y-60755182D01*
X75024557Y-60755182D02*
X74997619Y-60835994D01*
X74997619Y-60835994D02*
X74782120Y-61051494D01*
X74997619Y-60243372D02*
X75374743Y-59866248D01*
X75374743Y-59866248D02*
X75697992Y-60674370D01*
X73619998Y-86750868D02*
X73539185Y-86777805D01*
X73539185Y-86777805D02*
X73458373Y-86858618D01*
X73458373Y-86858618D02*
X73404498Y-86966367D01*
X73404498Y-86966367D02*
X73404498Y-87074117D01*
X73404498Y-87074117D02*
X73431436Y-87154929D01*
X73431436Y-87154929D02*
X73512248Y-87289616D01*
X73512248Y-87289616D02*
X73593060Y-87370428D01*
X73593060Y-87370428D02*
X73727747Y-87451241D01*
X73727747Y-87451241D02*
X73808560Y-87478178D01*
X73808560Y-87478178D02*
X73916309Y-87478178D01*
X73916309Y-87478178D02*
X74024059Y-87424303D01*
X74024059Y-87424303D02*
X74077934Y-87370428D01*
X74077934Y-87370428D02*
X74131808Y-87262679D01*
X74131808Y-87262679D02*
X74131808Y-87208804D01*
X74131808Y-87208804D02*
X73943247Y-87020242D01*
X73943247Y-87020242D02*
X73835497Y-87127992D01*
X74428120Y-87020242D02*
X73862434Y-86454557D01*
X73862434Y-86454557D02*
X74077934Y-86239057D01*
X74077934Y-86239057D02*
X74158746Y-86212120D01*
X74158746Y-86212120D02*
X74212621Y-86212120D01*
X74212621Y-86212120D02*
X74293433Y-86239057D01*
X74293433Y-86239057D02*
X74374245Y-86319870D01*
X74374245Y-86319870D02*
X74401182Y-86400682D01*
X74401182Y-86400682D02*
X74401182Y-86454557D01*
X74401182Y-86454557D02*
X74374245Y-86535369D01*
X74374245Y-86535369D02*
X74158746Y-86750868D01*
X75290117Y-86158245D02*
X74966868Y-86481494D01*
X75128492Y-86319870D02*
X74562807Y-85754184D01*
X74562807Y-85754184D02*
X74589744Y-85888871D01*
X74589744Y-85888871D02*
X74589744Y-85996621D01*
X74589744Y-85996621D02*
X74562807Y-86077433D01*
X75236242Y-85080749D02*
X74966868Y-85350123D01*
X74966868Y-85350123D02*
X75209305Y-85646434D01*
X75209305Y-85646434D02*
X75209305Y-85592560D01*
X75209305Y-85592560D02*
X75236242Y-85511747D01*
X75236242Y-85511747D02*
X75370929Y-85377060D01*
X75370929Y-85377060D02*
X75451741Y-85350123D01*
X75451741Y-85350123D02*
X75505616Y-85350123D01*
X75505616Y-85350123D02*
X75586428Y-85377060D01*
X75586428Y-85377060D02*
X75721115Y-85511747D01*
X75721115Y-85511747D02*
X75748053Y-85592560D01*
X75748053Y-85592560D02*
X75748053Y-85646434D01*
X75748053Y-85646434D02*
X75721115Y-85727247D01*
X75721115Y-85727247D02*
X75586428Y-85861934D01*
X75586428Y-85861934D02*
X75505616Y-85888871D01*
X75505616Y-85888871D02*
X75451741Y-85888871D01*
X99727998Y-84210868D02*
X99647185Y-84237805D01*
X99647185Y-84237805D02*
X99566373Y-84318618D01*
X99566373Y-84318618D02*
X99512498Y-84426367D01*
X99512498Y-84426367D02*
X99512498Y-84534117D01*
X99512498Y-84534117D02*
X99539436Y-84614929D01*
X99539436Y-84614929D02*
X99620248Y-84749616D01*
X99620248Y-84749616D02*
X99701060Y-84830428D01*
X99701060Y-84830428D02*
X99835747Y-84911241D01*
X99835747Y-84911241D02*
X99916560Y-84938178D01*
X99916560Y-84938178D02*
X100024309Y-84938178D01*
X100024309Y-84938178D02*
X100132059Y-84884303D01*
X100132059Y-84884303D02*
X100185934Y-84830428D01*
X100185934Y-84830428D02*
X100239808Y-84722679D01*
X100239808Y-84722679D02*
X100239808Y-84668804D01*
X100239808Y-84668804D02*
X100051247Y-84480242D01*
X100051247Y-84480242D02*
X99943497Y-84587992D01*
X100536120Y-84480242D02*
X99970434Y-83914557D01*
X99970434Y-83914557D02*
X100185934Y-83699057D01*
X100185934Y-83699057D02*
X100266746Y-83672120D01*
X100266746Y-83672120D02*
X100320621Y-83672120D01*
X100320621Y-83672120D02*
X100401433Y-83699057D01*
X100401433Y-83699057D02*
X100482245Y-83779870D01*
X100482245Y-83779870D02*
X100509182Y-83860682D01*
X100509182Y-83860682D02*
X100509182Y-83914557D01*
X100509182Y-83914557D02*
X100482245Y-83995369D01*
X100482245Y-83995369D02*
X100266746Y-84210868D01*
X101398117Y-83618245D02*
X101074868Y-83941494D01*
X101236492Y-83779870D02*
X100670807Y-83214184D01*
X100670807Y-83214184D02*
X100697744Y-83348871D01*
X100697744Y-83348871D02*
X100697744Y-83456621D01*
X100697744Y-83456621D02*
X100670807Y-83537433D01*
X101020993Y-82863998D02*
X101398117Y-82486874D01*
X101398117Y-82486874D02*
X101721366Y-83294996D01*
X99727998Y-61350868D02*
X99647185Y-61377805D01*
X99647185Y-61377805D02*
X99566373Y-61458618D01*
X99566373Y-61458618D02*
X99512498Y-61566367D01*
X99512498Y-61566367D02*
X99512498Y-61674117D01*
X99512498Y-61674117D02*
X99539436Y-61754929D01*
X99539436Y-61754929D02*
X99620248Y-61889616D01*
X99620248Y-61889616D02*
X99701060Y-61970428D01*
X99701060Y-61970428D02*
X99835747Y-62051241D01*
X99835747Y-62051241D02*
X99916560Y-62078178D01*
X99916560Y-62078178D02*
X100024309Y-62078178D01*
X100024309Y-62078178D02*
X100132059Y-62024303D01*
X100132059Y-62024303D02*
X100185934Y-61970428D01*
X100185934Y-61970428D02*
X100239808Y-61862679D01*
X100239808Y-61862679D02*
X100239808Y-61808804D01*
X100239808Y-61808804D02*
X100051247Y-61620242D01*
X100051247Y-61620242D02*
X99943497Y-61727992D01*
X100536120Y-61620242D02*
X99970434Y-61054557D01*
X99970434Y-61054557D02*
X100185934Y-60839057D01*
X100185934Y-60839057D02*
X100266746Y-60812120D01*
X100266746Y-60812120D02*
X100320621Y-60812120D01*
X100320621Y-60812120D02*
X100401433Y-60839057D01*
X100401433Y-60839057D02*
X100482245Y-60919870D01*
X100482245Y-60919870D02*
X100509182Y-61000682D01*
X100509182Y-61000682D02*
X100509182Y-61054557D01*
X100509182Y-61054557D02*
X100482245Y-61135369D01*
X100482245Y-61135369D02*
X100266746Y-61350868D01*
X100563057Y-60569683D02*
X100563057Y-60515809D01*
X100563057Y-60515809D02*
X100589995Y-60434996D01*
X100589995Y-60434996D02*
X100724682Y-60300309D01*
X100724682Y-60300309D02*
X100805494Y-60273372D01*
X100805494Y-60273372D02*
X100859369Y-60273372D01*
X100859369Y-60273372D02*
X100940181Y-60300309D01*
X100940181Y-60300309D02*
X100994056Y-60354184D01*
X100994056Y-60354184D02*
X101047930Y-60461934D01*
X101047930Y-60461934D02*
X101047930Y-61108431D01*
X101047930Y-61108431D02*
X101398117Y-60758245D01*
X101317305Y-59707686D02*
X101209555Y-59815436D01*
X101209555Y-59815436D02*
X101182618Y-59896248D01*
X101182618Y-59896248D02*
X101182618Y-59950123D01*
X101182618Y-59950123D02*
X101209555Y-60084810D01*
X101209555Y-60084810D02*
X101290367Y-60219497D01*
X101290367Y-60219497D02*
X101505866Y-60434996D01*
X101505866Y-60434996D02*
X101586679Y-60461934D01*
X101586679Y-60461934D02*
X101640553Y-60461934D01*
X101640553Y-60461934D02*
X101721366Y-60434996D01*
X101721366Y-60434996D02*
X101829115Y-60327247D01*
X101829115Y-60327247D02*
X101856053Y-60246434D01*
X101856053Y-60246434D02*
X101856053Y-60192560D01*
X101856053Y-60192560D02*
X101829115Y-60111747D01*
X101829115Y-60111747D02*
X101694428Y-59977060D01*
X101694428Y-59977060D02*
X101613616Y-59950123D01*
X101613616Y-59950123D02*
X101559741Y-59950123D01*
X101559741Y-59950123D02*
X101478929Y-59977060D01*
X101478929Y-59977060D02*
X101371179Y-60084810D01*
X101371179Y-60084810D02*
X101344242Y-60165622D01*
X101344242Y-60165622D02*
X101344242Y-60219497D01*
X101344242Y-60219497D02*
X101371179Y-60300309D01*
X80120475Y-88754200D02*
X80234761Y-88792295D01*
X80234761Y-88792295D02*
X80425237Y-88792295D01*
X80425237Y-88792295D02*
X80501428Y-88754200D01*
X80501428Y-88754200D02*
X80539523Y-88716104D01*
X80539523Y-88716104D02*
X80577618Y-88639914D01*
X80577618Y-88639914D02*
X80577618Y-88563723D01*
X80577618Y-88563723D02*
X80539523Y-88487533D01*
X80539523Y-88487533D02*
X80501428Y-88449438D01*
X80501428Y-88449438D02*
X80425237Y-88411342D01*
X80425237Y-88411342D02*
X80272856Y-88373247D01*
X80272856Y-88373247D02*
X80196666Y-88335152D01*
X80196666Y-88335152D02*
X80158571Y-88297057D01*
X80158571Y-88297057D02*
X80120475Y-88220866D01*
X80120475Y-88220866D02*
X80120475Y-88144676D01*
X80120475Y-88144676D02*
X80158571Y-88068485D01*
X80158571Y-88068485D02*
X80196666Y-88030390D01*
X80196666Y-88030390D02*
X80272856Y-87992295D01*
X80272856Y-87992295D02*
X80463333Y-87992295D01*
X80463333Y-87992295D02*
X80577618Y-88030390D01*
X80844285Y-87992295D02*
X81034761Y-88792295D01*
X81034761Y-88792295D02*
X81187142Y-88220866D01*
X81187142Y-88220866D02*
X81339523Y-88792295D01*
X81339523Y-88792295D02*
X81530000Y-87992295D01*
X82291905Y-88716104D02*
X82253809Y-88754200D01*
X82253809Y-88754200D02*
X82139524Y-88792295D01*
X82139524Y-88792295D02*
X82063333Y-88792295D01*
X82063333Y-88792295D02*
X81949047Y-88754200D01*
X81949047Y-88754200D02*
X81872857Y-88678009D01*
X81872857Y-88678009D02*
X81834762Y-88601819D01*
X81834762Y-88601819D02*
X81796666Y-88449438D01*
X81796666Y-88449438D02*
X81796666Y-88335152D01*
X81796666Y-88335152D02*
X81834762Y-88182771D01*
X81834762Y-88182771D02*
X81872857Y-88106580D01*
X81872857Y-88106580D02*
X81949047Y-88030390D01*
X81949047Y-88030390D02*
X82063333Y-87992295D01*
X82063333Y-87992295D02*
X82139524Y-87992295D01*
X82139524Y-87992295D02*
X82253809Y-88030390D01*
X82253809Y-88030390D02*
X82291905Y-88068485D01*
X83015714Y-88792295D02*
X82634762Y-88792295D01*
X82634762Y-88792295D02*
X82634762Y-87992295D01*
X83282381Y-88792295D02*
X83282381Y-87992295D01*
X83739524Y-88792295D02*
X83396666Y-88335152D01*
X83739524Y-87992295D02*
X83282381Y-88449438D01*
X99552407Y-46188584D02*
X99902593Y-45838398D01*
X99902593Y-45838398D02*
X99929531Y-46242459D01*
X99929531Y-46242459D02*
X100010343Y-46161646D01*
X100010343Y-46161646D02*
X100091155Y-46134709D01*
X100091155Y-46134709D02*
X100145030Y-46134709D01*
X100145030Y-46134709D02*
X100225842Y-46161646D01*
X100225842Y-46161646D02*
X100360529Y-46296333D01*
X100360529Y-46296333D02*
X100387467Y-46377146D01*
X100387467Y-46377146D02*
X100387467Y-46431020D01*
X100387467Y-46431020D02*
X100360529Y-46511833D01*
X100360529Y-46511833D02*
X100198905Y-46673457D01*
X100198905Y-46673457D02*
X100118093Y-46700394D01*
X100118093Y-46700394D02*
X100064218Y-46700394D01*
X100064218Y-45676773D02*
X100818465Y-46053897D01*
X100818465Y-46053897D02*
X100441342Y-45299649D01*
X100576028Y-45164963D02*
X100926215Y-44814776D01*
X100926215Y-44814776D02*
X100953152Y-45218837D01*
X100953152Y-45218837D02*
X101033964Y-45138025D01*
X101033964Y-45138025D02*
X101114776Y-45111088D01*
X101114776Y-45111088D02*
X101168651Y-45111088D01*
X101168651Y-45111088D02*
X101249464Y-45138025D01*
X101249464Y-45138025D02*
X101384151Y-45272712D01*
X101384151Y-45272712D02*
X101411088Y-45353524D01*
X101411088Y-45353524D02*
X101411088Y-45407399D01*
X101411088Y-45407399D02*
X101384151Y-45488211D01*
X101384151Y-45488211D02*
X101222526Y-45649836D01*
X101222526Y-45649836D02*
X101141714Y-45676773D01*
X101141714Y-45676773D02*
X101087839Y-45676773D01*
X101653525Y-45326587D02*
X102084523Y-44895588D01*
X101869024Y-44410715D02*
X102057586Y-44222153D01*
X102434709Y-44437652D02*
X102165335Y-44707026D01*
X102165335Y-44707026D02*
X101599650Y-44141341D01*
X101599650Y-44141341D02*
X101869024Y-43871967D01*
X102677146Y-44195215D02*
X102111461Y-43629530D01*
X102111461Y-43629530D02*
X103000395Y-43871967D01*
X103000395Y-43871967D02*
X102434710Y-43306281D01*
X99520123Y-48720868D02*
X99870309Y-48370682D01*
X99870309Y-48370682D02*
X99897247Y-48774743D01*
X99897247Y-48774743D02*
X99978059Y-48693931D01*
X99978059Y-48693931D02*
X100058871Y-48666993D01*
X100058871Y-48666993D02*
X100112746Y-48666993D01*
X100112746Y-48666993D02*
X100193558Y-48693931D01*
X100193558Y-48693931D02*
X100328245Y-48828618D01*
X100328245Y-48828618D02*
X100355182Y-48909430D01*
X100355182Y-48909430D02*
X100355182Y-48963305D01*
X100355182Y-48963305D02*
X100328245Y-49044117D01*
X100328245Y-49044117D02*
X100166621Y-49205741D01*
X100166621Y-49205741D02*
X100085808Y-49232679D01*
X100085808Y-49232679D02*
X100031934Y-49232679D01*
X100031934Y-48209057D02*
X100786181Y-48586181D01*
X100786181Y-48586181D02*
X100409057Y-47831934D01*
X100543744Y-47697247D02*
X100893930Y-47347061D01*
X100893930Y-47347061D02*
X100920868Y-47751122D01*
X100920868Y-47751122D02*
X101001680Y-47670309D01*
X101001680Y-47670309D02*
X101082492Y-47643372D01*
X101082492Y-47643372D02*
X101136367Y-47643372D01*
X101136367Y-47643372D02*
X101217179Y-47670309D01*
X101217179Y-47670309D02*
X101351866Y-47804996D01*
X101351866Y-47804996D02*
X101378804Y-47885809D01*
X101378804Y-47885809D02*
X101378804Y-47939683D01*
X101378804Y-47939683D02*
X101351866Y-48020496D01*
X101351866Y-48020496D02*
X101190242Y-48182120D01*
X101190242Y-48182120D02*
X101109430Y-48209057D01*
X101109430Y-48209057D02*
X101055555Y-48209057D01*
X74143372Y-63621494D02*
X74062560Y-63648431D01*
X74062560Y-63648431D02*
X73981748Y-63729243D01*
X73981748Y-63729243D02*
X73927873Y-63836993D01*
X73927873Y-63836993D02*
X73927873Y-63944742D01*
X73927873Y-63944742D02*
X73954810Y-64025555D01*
X73954810Y-64025555D02*
X74035623Y-64160242D01*
X74035623Y-64160242D02*
X74116435Y-64241054D01*
X74116435Y-64241054D02*
X74251122Y-64321866D01*
X74251122Y-64321866D02*
X74331934Y-64348803D01*
X74331934Y-64348803D02*
X74439684Y-64348803D01*
X74439684Y-64348803D02*
X74547433Y-64294929D01*
X74547433Y-64294929D02*
X74601308Y-64241054D01*
X74601308Y-64241054D02*
X74655183Y-64133304D01*
X74655183Y-64133304D02*
X74655183Y-64079429D01*
X74655183Y-64079429D02*
X74466621Y-63890868D01*
X74466621Y-63890868D02*
X74358871Y-63998617D01*
X74951494Y-63890868D02*
X74385809Y-63325182D01*
X74385809Y-63325182D02*
X74601308Y-63109683D01*
X74601308Y-63109683D02*
X74682120Y-63082746D01*
X74682120Y-63082746D02*
X74735995Y-63082746D01*
X74735995Y-63082746D02*
X74816807Y-63109683D01*
X74816807Y-63109683D02*
X74897619Y-63190495D01*
X74897619Y-63190495D02*
X74924557Y-63271307D01*
X74924557Y-63271307D02*
X74924557Y-63325182D01*
X74924557Y-63325182D02*
X74897619Y-63405994D01*
X74897619Y-63405994D02*
X74682120Y-63621494D01*
X75274743Y-62921121D02*
X75193931Y-62948059D01*
X75193931Y-62948059D02*
X75140056Y-62948059D01*
X75140056Y-62948059D02*
X75059244Y-62921121D01*
X75059244Y-62921121D02*
X75032306Y-62894184D01*
X75032306Y-62894184D02*
X75005369Y-62813372D01*
X75005369Y-62813372D02*
X75005369Y-62759497D01*
X75005369Y-62759497D02*
X75032306Y-62678685D01*
X75032306Y-62678685D02*
X75140056Y-62570935D01*
X75140056Y-62570935D02*
X75220868Y-62543998D01*
X75220868Y-62543998D02*
X75274743Y-62543998D01*
X75274743Y-62543998D02*
X75355555Y-62570935D01*
X75355555Y-62570935D02*
X75382493Y-62597872D01*
X75382493Y-62597872D02*
X75409430Y-62678685D01*
X75409430Y-62678685D02*
X75409430Y-62732559D01*
X75409430Y-62732559D02*
X75382493Y-62813372D01*
X75382493Y-62813372D02*
X75274743Y-62921121D01*
X75274743Y-62921121D02*
X75247806Y-63001933D01*
X75247806Y-63001933D02*
X75247806Y-63055808D01*
X75247806Y-63055808D02*
X75274743Y-63136620D01*
X75274743Y-63136620D02*
X75382493Y-63244370D01*
X75382493Y-63244370D02*
X75463305Y-63271307D01*
X75463305Y-63271307D02*
X75517180Y-63271307D01*
X75517180Y-63271307D02*
X75597992Y-63244370D01*
X75597992Y-63244370D02*
X75705741Y-63136620D01*
X75705741Y-63136620D02*
X75732679Y-63055808D01*
X75732679Y-63055808D02*
X75732679Y-63001933D01*
X75732679Y-63001933D02*
X75705741Y-62921121D01*
X75705741Y-62921121D02*
X75597992Y-62813372D01*
X75597992Y-62813372D02*
X75517180Y-62786434D01*
X75517180Y-62786434D02*
X75463305Y-62786434D01*
X75463305Y-62786434D02*
X75382493Y-62813372D01*
X99727998Y-86750868D02*
X99647185Y-86777805D01*
X99647185Y-86777805D02*
X99566373Y-86858618D01*
X99566373Y-86858618D02*
X99512498Y-86966367D01*
X99512498Y-86966367D02*
X99512498Y-87074117D01*
X99512498Y-87074117D02*
X99539436Y-87154929D01*
X99539436Y-87154929D02*
X99620248Y-87289616D01*
X99620248Y-87289616D02*
X99701060Y-87370428D01*
X99701060Y-87370428D02*
X99835747Y-87451241D01*
X99835747Y-87451241D02*
X99916560Y-87478178D01*
X99916560Y-87478178D02*
X100024309Y-87478178D01*
X100024309Y-87478178D02*
X100132059Y-87424303D01*
X100132059Y-87424303D02*
X100185934Y-87370428D01*
X100185934Y-87370428D02*
X100239808Y-87262679D01*
X100239808Y-87262679D02*
X100239808Y-87208804D01*
X100239808Y-87208804D02*
X100051247Y-87020242D01*
X100051247Y-87020242D02*
X99943497Y-87127992D01*
X100536120Y-87020242D02*
X99970434Y-86454557D01*
X99970434Y-86454557D02*
X100185934Y-86239057D01*
X100185934Y-86239057D02*
X100266746Y-86212120D01*
X100266746Y-86212120D02*
X100320621Y-86212120D01*
X100320621Y-86212120D02*
X100401433Y-86239057D01*
X100401433Y-86239057D02*
X100482245Y-86319870D01*
X100482245Y-86319870D02*
X100509182Y-86400682D01*
X100509182Y-86400682D02*
X100509182Y-86454557D01*
X100509182Y-86454557D02*
X100482245Y-86535369D01*
X100482245Y-86535369D02*
X100266746Y-86750868D01*
X101398117Y-86158245D02*
X101074868Y-86481494D01*
X101236492Y-86319870D02*
X100670807Y-85754184D01*
X100670807Y-85754184D02*
X100697744Y-85888871D01*
X100697744Y-85888871D02*
X100697744Y-85996621D01*
X100697744Y-85996621D02*
X100670807Y-86077433D01*
X101317305Y-85107686D02*
X101209555Y-85215436D01*
X101209555Y-85215436D02*
X101182618Y-85296248D01*
X101182618Y-85296248D02*
X101182618Y-85350123D01*
X101182618Y-85350123D02*
X101209555Y-85484810D01*
X101209555Y-85484810D02*
X101290367Y-85619497D01*
X101290367Y-85619497D02*
X101505866Y-85834996D01*
X101505866Y-85834996D02*
X101586679Y-85861934D01*
X101586679Y-85861934D02*
X101640553Y-85861934D01*
X101640553Y-85861934D02*
X101721366Y-85834996D01*
X101721366Y-85834996D02*
X101829115Y-85727247D01*
X101829115Y-85727247D02*
X101856053Y-85646434D01*
X101856053Y-85646434D02*
X101856053Y-85592560D01*
X101856053Y-85592560D02*
X101829115Y-85511747D01*
X101829115Y-85511747D02*
X101694428Y-85377060D01*
X101694428Y-85377060D02*
X101613616Y-85350123D01*
X101613616Y-85350123D02*
X101559741Y-85350123D01*
X101559741Y-85350123D02*
X101478929Y-85377060D01*
X101478929Y-85377060D02*
X101371179Y-85484810D01*
X101371179Y-85484810D02*
X101344242Y-85565622D01*
X101344242Y-85565622D02*
X101344242Y-85619497D01*
X101344242Y-85619497D02*
X101371179Y-85700309D01*
X99716435Y-68728431D02*
X99635623Y-68755368D01*
X99635623Y-68755368D02*
X99554811Y-68836180D01*
X99554811Y-68836180D02*
X99500936Y-68943930D01*
X99500936Y-68943930D02*
X99500936Y-69051680D01*
X99500936Y-69051680D02*
X99527873Y-69132492D01*
X99527873Y-69132492D02*
X99608685Y-69267179D01*
X99608685Y-69267179D02*
X99689498Y-69347991D01*
X99689498Y-69347991D02*
X99824185Y-69428803D01*
X99824185Y-69428803D02*
X99904997Y-69455741D01*
X99904997Y-69455741D02*
X100012746Y-69455741D01*
X100012746Y-69455741D02*
X100120496Y-69401866D01*
X100120496Y-69401866D02*
X100174371Y-69347991D01*
X100174371Y-69347991D02*
X100228246Y-69240241D01*
X100228246Y-69240241D02*
X100228246Y-69186367D01*
X100228246Y-69186367D02*
X100039684Y-68997805D01*
X100039684Y-68997805D02*
X99931934Y-69105554D01*
X100524557Y-68997805D02*
X99958872Y-68432119D01*
X99958872Y-68432119D02*
X100847806Y-68674556D01*
X100847806Y-68674556D02*
X100282120Y-68108871D01*
X101117180Y-68405182D02*
X100551494Y-67839497D01*
X100551494Y-67839497D02*
X100686181Y-67704810D01*
X100686181Y-67704810D02*
X100793931Y-67650935D01*
X100793931Y-67650935D02*
X100901680Y-67650935D01*
X100901680Y-67650935D02*
X100982493Y-67677872D01*
X100982493Y-67677872D02*
X101117180Y-67758685D01*
X101117180Y-67758685D02*
X101197992Y-67839497D01*
X101197992Y-67839497D02*
X101278804Y-67974184D01*
X101278804Y-67974184D02*
X101305741Y-68054996D01*
X101305741Y-68054996D02*
X101305741Y-68162746D01*
X101305741Y-68162746D02*
X101251867Y-68270495D01*
X101251867Y-68270495D02*
X101117180Y-68405182D01*
X74116435Y-56028431D02*
X74035623Y-56055368D01*
X74035623Y-56055368D02*
X73954811Y-56136180D01*
X73954811Y-56136180D02*
X73900936Y-56243930D01*
X73900936Y-56243930D02*
X73900936Y-56351680D01*
X73900936Y-56351680D02*
X73927873Y-56432492D01*
X73927873Y-56432492D02*
X74008685Y-56567179D01*
X74008685Y-56567179D02*
X74089498Y-56647991D01*
X74089498Y-56647991D02*
X74224185Y-56728803D01*
X74224185Y-56728803D02*
X74304997Y-56755741D01*
X74304997Y-56755741D02*
X74412746Y-56755741D01*
X74412746Y-56755741D02*
X74520496Y-56701866D01*
X74520496Y-56701866D02*
X74574371Y-56647991D01*
X74574371Y-56647991D02*
X74628246Y-56540241D01*
X74628246Y-56540241D02*
X74628246Y-56486367D01*
X74628246Y-56486367D02*
X74439684Y-56297805D01*
X74439684Y-56297805D02*
X74331934Y-56405554D01*
X74924557Y-56297805D02*
X74358872Y-55732119D01*
X74358872Y-55732119D02*
X75247806Y-55974556D01*
X75247806Y-55974556D02*
X74682120Y-55408871D01*
X75517180Y-55705182D02*
X74951494Y-55139497D01*
X74951494Y-55139497D02*
X75086181Y-55004810D01*
X75086181Y-55004810D02*
X75193931Y-54950935D01*
X75193931Y-54950935D02*
X75301680Y-54950935D01*
X75301680Y-54950935D02*
X75382493Y-54977872D01*
X75382493Y-54977872D02*
X75517180Y-55058685D01*
X75517180Y-55058685D02*
X75597992Y-55139497D01*
X75597992Y-55139497D02*
X75678804Y-55274184D01*
X75678804Y-55274184D02*
X75705741Y-55354996D01*
X75705741Y-55354996D02*
X75705741Y-55462746D01*
X75705741Y-55462746D02*
X75651867Y-55570495D01*
X75651867Y-55570495D02*
X75517180Y-55705182D01*
X99727998Y-53476868D02*
X99647185Y-53503805D01*
X99647185Y-53503805D02*
X99566373Y-53584618D01*
X99566373Y-53584618D02*
X99512498Y-53692367D01*
X99512498Y-53692367D02*
X99512498Y-53800117D01*
X99512498Y-53800117D02*
X99539436Y-53880929D01*
X99539436Y-53880929D02*
X99620248Y-54015616D01*
X99620248Y-54015616D02*
X99701060Y-54096428D01*
X99701060Y-54096428D02*
X99835747Y-54177241D01*
X99835747Y-54177241D02*
X99916560Y-54204178D01*
X99916560Y-54204178D02*
X100024309Y-54204178D01*
X100024309Y-54204178D02*
X100132059Y-54150303D01*
X100132059Y-54150303D02*
X100185934Y-54096428D01*
X100185934Y-54096428D02*
X100239808Y-53988679D01*
X100239808Y-53988679D02*
X100239808Y-53934804D01*
X100239808Y-53934804D02*
X100051247Y-53746242D01*
X100051247Y-53746242D02*
X99943497Y-53853992D01*
X100536120Y-53746242D02*
X99970434Y-53180557D01*
X99970434Y-53180557D02*
X100185934Y-52965057D01*
X100185934Y-52965057D02*
X100266746Y-52938120D01*
X100266746Y-52938120D02*
X100320621Y-52938120D01*
X100320621Y-52938120D02*
X100401433Y-52965057D01*
X100401433Y-52965057D02*
X100482245Y-53045870D01*
X100482245Y-53045870D02*
X100509182Y-53126682D01*
X100509182Y-53126682D02*
X100509182Y-53180557D01*
X100509182Y-53180557D02*
X100482245Y-53261369D01*
X100482245Y-53261369D02*
X100266746Y-53476868D01*
X100563057Y-52695683D02*
X100563057Y-52641809D01*
X100563057Y-52641809D02*
X100589995Y-52560996D01*
X100589995Y-52560996D02*
X100724682Y-52426309D01*
X100724682Y-52426309D02*
X100805494Y-52399372D01*
X100805494Y-52399372D02*
X100859369Y-52399372D01*
X100859369Y-52399372D02*
X100940181Y-52426309D01*
X100940181Y-52426309D02*
X100994056Y-52480184D01*
X100994056Y-52480184D02*
X101047930Y-52587934D01*
X101047930Y-52587934D02*
X101047930Y-53234431D01*
X101047930Y-53234431D02*
X101398117Y-52884245D01*
X101398117Y-52237747D02*
X101317305Y-52264685D01*
X101317305Y-52264685D02*
X101263430Y-52264685D01*
X101263430Y-52264685D02*
X101182618Y-52237747D01*
X101182618Y-52237747D02*
X101155680Y-52210810D01*
X101155680Y-52210810D02*
X101128743Y-52129998D01*
X101128743Y-52129998D02*
X101128743Y-52076123D01*
X101128743Y-52076123D02*
X101155680Y-51995311D01*
X101155680Y-51995311D02*
X101263430Y-51887561D01*
X101263430Y-51887561D02*
X101344242Y-51860624D01*
X101344242Y-51860624D02*
X101398117Y-51860624D01*
X101398117Y-51860624D02*
X101478929Y-51887561D01*
X101478929Y-51887561D02*
X101505866Y-51914499D01*
X101505866Y-51914499D02*
X101532804Y-51995311D01*
X101532804Y-51995311D02*
X101532804Y-52049186D01*
X101532804Y-52049186D02*
X101505866Y-52129998D01*
X101505866Y-52129998D02*
X101398117Y-52237747D01*
X101398117Y-52237747D02*
X101371179Y-52318560D01*
X101371179Y-52318560D02*
X101371179Y-52372434D01*
X101371179Y-52372434D02*
X101398117Y-52453247D01*
X101398117Y-52453247D02*
X101505866Y-52560996D01*
X101505866Y-52560996D02*
X101586679Y-52587934D01*
X101586679Y-52587934D02*
X101640553Y-52587934D01*
X101640553Y-52587934D02*
X101721366Y-52560996D01*
X101721366Y-52560996D02*
X101829115Y-52453247D01*
X101829115Y-52453247D02*
X101856053Y-52372434D01*
X101856053Y-52372434D02*
X101856053Y-52318560D01*
X101856053Y-52318560D02*
X101829115Y-52237747D01*
X101829115Y-52237747D02*
X101721366Y-52129998D01*
X101721366Y-52129998D02*
X101640553Y-52103060D01*
X101640553Y-52103060D02*
X101586679Y-52103060D01*
X101586679Y-52103060D02*
X101505866Y-52129998D01*
X74143372Y-66161494D02*
X74062560Y-66188431D01*
X74062560Y-66188431D02*
X73981748Y-66269243D01*
X73981748Y-66269243D02*
X73927873Y-66376993D01*
X73927873Y-66376993D02*
X73927873Y-66484742D01*
X73927873Y-66484742D02*
X73954810Y-66565555D01*
X73954810Y-66565555D02*
X74035623Y-66700242D01*
X74035623Y-66700242D02*
X74116435Y-66781054D01*
X74116435Y-66781054D02*
X74251122Y-66861866D01*
X74251122Y-66861866D02*
X74331934Y-66888803D01*
X74331934Y-66888803D02*
X74439684Y-66888803D01*
X74439684Y-66888803D02*
X74547433Y-66834929D01*
X74547433Y-66834929D02*
X74601308Y-66781054D01*
X74601308Y-66781054D02*
X74655183Y-66673304D01*
X74655183Y-66673304D02*
X74655183Y-66619429D01*
X74655183Y-66619429D02*
X74466621Y-66430868D01*
X74466621Y-66430868D02*
X74358871Y-66538617D01*
X74951494Y-66430868D02*
X74385809Y-65865182D01*
X74385809Y-65865182D02*
X74601308Y-65649683D01*
X74601308Y-65649683D02*
X74682120Y-65622746D01*
X74682120Y-65622746D02*
X74735995Y-65622746D01*
X74735995Y-65622746D02*
X74816807Y-65649683D01*
X74816807Y-65649683D02*
X74897619Y-65730495D01*
X74897619Y-65730495D02*
X74924557Y-65811307D01*
X74924557Y-65811307D02*
X74924557Y-65865182D01*
X74924557Y-65865182D02*
X74897619Y-65945994D01*
X74897619Y-65945994D02*
X74682120Y-66161494D01*
X75544117Y-65838245D02*
X75651867Y-65730495D01*
X75651867Y-65730495D02*
X75678804Y-65649683D01*
X75678804Y-65649683D02*
X75678804Y-65595808D01*
X75678804Y-65595808D02*
X75651867Y-65461121D01*
X75651867Y-65461121D02*
X75571054Y-65326434D01*
X75571054Y-65326434D02*
X75355555Y-65110935D01*
X75355555Y-65110935D02*
X75274743Y-65083998D01*
X75274743Y-65083998D02*
X75220868Y-65083998D01*
X75220868Y-65083998D02*
X75140056Y-65110935D01*
X75140056Y-65110935D02*
X75032306Y-65218685D01*
X75032306Y-65218685D02*
X75005369Y-65299497D01*
X75005369Y-65299497D02*
X75005369Y-65353372D01*
X75005369Y-65353372D02*
X75032306Y-65434184D01*
X75032306Y-65434184D02*
X75166993Y-65568871D01*
X75166993Y-65568871D02*
X75247806Y-65595808D01*
X75247806Y-65595808D02*
X75301680Y-65595808D01*
X75301680Y-65595808D02*
X75382493Y-65568871D01*
X75382493Y-65568871D02*
X75490242Y-65461121D01*
X75490242Y-65461121D02*
X75517180Y-65380309D01*
X75517180Y-65380309D02*
X75517180Y-65326434D01*
X75517180Y-65326434D02*
X75490242Y-65245622D01*
X91534761Y-88754200D02*
X91649047Y-88792295D01*
X91649047Y-88792295D02*
X91839523Y-88792295D01*
X91839523Y-88792295D02*
X91915714Y-88754200D01*
X91915714Y-88754200D02*
X91953809Y-88716104D01*
X91953809Y-88716104D02*
X91991904Y-88639914D01*
X91991904Y-88639914D02*
X91991904Y-88563723D01*
X91991904Y-88563723D02*
X91953809Y-88487533D01*
X91953809Y-88487533D02*
X91915714Y-88449438D01*
X91915714Y-88449438D02*
X91839523Y-88411342D01*
X91839523Y-88411342D02*
X91687142Y-88373247D01*
X91687142Y-88373247D02*
X91610952Y-88335152D01*
X91610952Y-88335152D02*
X91572857Y-88297057D01*
X91572857Y-88297057D02*
X91534761Y-88220866D01*
X91534761Y-88220866D02*
X91534761Y-88144676D01*
X91534761Y-88144676D02*
X91572857Y-88068485D01*
X91572857Y-88068485D02*
X91610952Y-88030390D01*
X91610952Y-88030390D02*
X91687142Y-87992295D01*
X91687142Y-87992295D02*
X91877619Y-87992295D01*
X91877619Y-87992295D02*
X91991904Y-88030390D01*
X92258571Y-87992295D02*
X92449047Y-88792295D01*
X92449047Y-88792295D02*
X92601428Y-88220866D01*
X92601428Y-88220866D02*
X92753809Y-88792295D01*
X92753809Y-88792295D02*
X92944286Y-87992295D01*
X93249048Y-88792295D02*
X93249048Y-87992295D01*
X93249048Y-87992295D02*
X93439524Y-87992295D01*
X93439524Y-87992295D02*
X93553810Y-88030390D01*
X93553810Y-88030390D02*
X93630000Y-88106580D01*
X93630000Y-88106580D02*
X93668095Y-88182771D01*
X93668095Y-88182771D02*
X93706191Y-88335152D01*
X93706191Y-88335152D02*
X93706191Y-88449438D01*
X93706191Y-88449438D02*
X93668095Y-88601819D01*
X93668095Y-88601819D02*
X93630000Y-88678009D01*
X93630000Y-88678009D02*
X93553810Y-88754200D01*
X93553810Y-88754200D02*
X93439524Y-88792295D01*
X93439524Y-88792295D02*
X93249048Y-88792295D01*
X94049048Y-88792295D02*
X94049048Y-87992295D01*
X94582381Y-87992295D02*
X94734762Y-87992295D01*
X94734762Y-87992295D02*
X94810952Y-88030390D01*
X94810952Y-88030390D02*
X94887143Y-88106580D01*
X94887143Y-88106580D02*
X94925238Y-88258961D01*
X94925238Y-88258961D02*
X94925238Y-88525628D01*
X94925238Y-88525628D02*
X94887143Y-88678009D01*
X94887143Y-88678009D02*
X94810952Y-88754200D01*
X94810952Y-88754200D02*
X94734762Y-88792295D01*
X94734762Y-88792295D02*
X94582381Y-88792295D01*
X94582381Y-88792295D02*
X94506190Y-88754200D01*
X94506190Y-88754200D02*
X94430000Y-88678009D01*
X94430000Y-88678009D02*
X94391904Y-88525628D01*
X94391904Y-88525628D02*
X94391904Y-88258961D01*
X94391904Y-88258961D02*
X94430000Y-88106580D01*
X94430000Y-88106580D02*
X94506190Y-88030390D01*
X94506190Y-88030390D02*
X94582381Y-87992295D01*
X74143372Y-53461494D02*
X74062560Y-53488431D01*
X74062560Y-53488431D02*
X73981748Y-53569243D01*
X73981748Y-53569243D02*
X73927873Y-53676993D01*
X73927873Y-53676993D02*
X73927873Y-53784742D01*
X73927873Y-53784742D02*
X73954810Y-53865555D01*
X73954810Y-53865555D02*
X74035623Y-54000242D01*
X74035623Y-54000242D02*
X74116435Y-54081054D01*
X74116435Y-54081054D02*
X74251122Y-54161866D01*
X74251122Y-54161866D02*
X74331934Y-54188803D01*
X74331934Y-54188803D02*
X74439684Y-54188803D01*
X74439684Y-54188803D02*
X74547433Y-54134929D01*
X74547433Y-54134929D02*
X74601308Y-54081054D01*
X74601308Y-54081054D02*
X74655183Y-53973304D01*
X74655183Y-53973304D02*
X74655183Y-53919429D01*
X74655183Y-53919429D02*
X74466621Y-53730868D01*
X74466621Y-53730868D02*
X74358871Y-53838617D01*
X74951494Y-53730868D02*
X74385809Y-53165182D01*
X74385809Y-53165182D02*
X74601308Y-52949683D01*
X74601308Y-52949683D02*
X74682120Y-52922746D01*
X74682120Y-52922746D02*
X74735995Y-52922746D01*
X74735995Y-52922746D02*
X74816807Y-52949683D01*
X74816807Y-52949683D02*
X74897619Y-53030495D01*
X74897619Y-53030495D02*
X74924557Y-53111307D01*
X74924557Y-53111307D02*
X74924557Y-53165182D01*
X74924557Y-53165182D02*
X74897619Y-53245994D01*
X74897619Y-53245994D02*
X74682120Y-53461494D01*
X75220868Y-52330123D02*
X74951494Y-52599497D01*
X74951494Y-52599497D02*
X75193931Y-52895808D01*
X75193931Y-52895808D02*
X75193931Y-52841933D01*
X75193931Y-52841933D02*
X75220868Y-52761121D01*
X75220868Y-52761121D02*
X75355555Y-52626434D01*
X75355555Y-52626434D02*
X75436367Y-52599497D01*
X75436367Y-52599497D02*
X75490242Y-52599497D01*
X75490242Y-52599497D02*
X75571054Y-52626434D01*
X75571054Y-52626434D02*
X75705741Y-52761121D01*
X75705741Y-52761121D02*
X75732679Y-52841933D01*
X75732679Y-52841933D02*
X75732679Y-52895808D01*
X75732679Y-52895808D02*
X75705741Y-52976620D01*
X75705741Y-52976620D02*
X75571054Y-53111307D01*
X75571054Y-53111307D02*
X75490242Y-53138245D01*
X75490242Y-53138245D02*
X75436367Y-53138245D01*
X74143372Y-38221494D02*
X74062560Y-38248431D01*
X74062560Y-38248431D02*
X73981748Y-38329243D01*
X73981748Y-38329243D02*
X73927873Y-38436993D01*
X73927873Y-38436993D02*
X73927873Y-38544742D01*
X73927873Y-38544742D02*
X73954810Y-38625555D01*
X73954810Y-38625555D02*
X74035623Y-38760242D01*
X74035623Y-38760242D02*
X74116435Y-38841054D01*
X74116435Y-38841054D02*
X74251122Y-38921866D01*
X74251122Y-38921866D02*
X74331934Y-38948803D01*
X74331934Y-38948803D02*
X74439684Y-38948803D01*
X74439684Y-38948803D02*
X74547433Y-38894929D01*
X74547433Y-38894929D02*
X74601308Y-38841054D01*
X74601308Y-38841054D02*
X74655183Y-38733304D01*
X74655183Y-38733304D02*
X74655183Y-38679429D01*
X74655183Y-38679429D02*
X74466621Y-38490868D01*
X74466621Y-38490868D02*
X74358871Y-38598617D01*
X74951494Y-38490868D02*
X74385809Y-37925182D01*
X74385809Y-37925182D02*
X74601308Y-37709683D01*
X74601308Y-37709683D02*
X74682120Y-37682746D01*
X74682120Y-37682746D02*
X74735995Y-37682746D01*
X74735995Y-37682746D02*
X74816807Y-37709683D01*
X74816807Y-37709683D02*
X74897619Y-37790495D01*
X74897619Y-37790495D02*
X74924557Y-37871307D01*
X74924557Y-37871307D02*
X74924557Y-37925182D01*
X74924557Y-37925182D02*
X74897619Y-38005994D01*
X74897619Y-38005994D02*
X74682120Y-38221494D01*
X75059244Y-37251747D02*
X75113119Y-37197872D01*
X75113119Y-37197872D02*
X75193931Y-37170935D01*
X75193931Y-37170935D02*
X75247806Y-37170935D01*
X75247806Y-37170935D02*
X75328618Y-37197872D01*
X75328618Y-37197872D02*
X75463305Y-37278685D01*
X75463305Y-37278685D02*
X75597992Y-37413372D01*
X75597992Y-37413372D02*
X75678804Y-37548059D01*
X75678804Y-37548059D02*
X75705741Y-37628871D01*
X75705741Y-37628871D02*
X75705741Y-37682746D01*
X75705741Y-37682746D02*
X75678804Y-37763558D01*
X75678804Y-37763558D02*
X75624929Y-37817433D01*
X75624929Y-37817433D02*
X75544117Y-37844370D01*
X75544117Y-37844370D02*
X75490242Y-37844370D01*
X75490242Y-37844370D02*
X75409430Y-37817433D01*
X75409430Y-37817433D02*
X75274743Y-37736620D01*
X75274743Y-37736620D02*
X75140056Y-37601933D01*
X75140056Y-37601933D02*
X75059244Y-37467246D01*
X75059244Y-37467246D02*
X75032306Y-37386434D01*
X75032306Y-37386434D02*
X75032306Y-37332559D01*
X75032306Y-37332559D02*
X75059244Y-37251747D01*
X74143372Y-48381494D02*
X74062560Y-48408431D01*
X74062560Y-48408431D02*
X73981748Y-48489243D01*
X73981748Y-48489243D02*
X73927873Y-48596993D01*
X73927873Y-48596993D02*
X73927873Y-48704742D01*
X73927873Y-48704742D02*
X73954810Y-48785555D01*
X73954810Y-48785555D02*
X74035623Y-48920242D01*
X74035623Y-48920242D02*
X74116435Y-49001054D01*
X74116435Y-49001054D02*
X74251122Y-49081866D01*
X74251122Y-49081866D02*
X74331934Y-49108803D01*
X74331934Y-49108803D02*
X74439684Y-49108803D01*
X74439684Y-49108803D02*
X74547433Y-49054929D01*
X74547433Y-49054929D02*
X74601308Y-49001054D01*
X74601308Y-49001054D02*
X74655183Y-48893304D01*
X74655183Y-48893304D02*
X74655183Y-48839429D01*
X74655183Y-48839429D02*
X74466621Y-48650868D01*
X74466621Y-48650868D02*
X74358871Y-48758617D01*
X74951494Y-48650868D02*
X74385809Y-48085182D01*
X74385809Y-48085182D02*
X74601308Y-47869683D01*
X74601308Y-47869683D02*
X74682120Y-47842746D01*
X74682120Y-47842746D02*
X74735995Y-47842746D01*
X74735995Y-47842746D02*
X74816807Y-47869683D01*
X74816807Y-47869683D02*
X74897619Y-47950495D01*
X74897619Y-47950495D02*
X74924557Y-48031307D01*
X74924557Y-48031307D02*
X74924557Y-48085182D01*
X74924557Y-48085182D02*
X74897619Y-48165994D01*
X74897619Y-48165994D02*
X74682120Y-48381494D01*
X74897619Y-47573372D02*
X75247806Y-47223185D01*
X75247806Y-47223185D02*
X75274743Y-47627246D01*
X75274743Y-47627246D02*
X75355555Y-47546434D01*
X75355555Y-47546434D02*
X75436367Y-47519497D01*
X75436367Y-47519497D02*
X75490242Y-47519497D01*
X75490242Y-47519497D02*
X75571054Y-47546434D01*
X75571054Y-47546434D02*
X75705741Y-47681121D01*
X75705741Y-47681121D02*
X75732679Y-47761933D01*
X75732679Y-47761933D02*
X75732679Y-47815808D01*
X75732679Y-47815808D02*
X75705741Y-47896620D01*
X75705741Y-47896620D02*
X75544117Y-48058245D01*
X75544117Y-48058245D02*
X75463305Y-48085182D01*
X75463305Y-48085182D02*
X75409430Y-48085182D01*
X74116435Y-81428431D02*
X74035623Y-81455368D01*
X74035623Y-81455368D02*
X73954811Y-81536180D01*
X73954811Y-81536180D02*
X73900936Y-81643930D01*
X73900936Y-81643930D02*
X73900936Y-81751680D01*
X73900936Y-81751680D02*
X73927873Y-81832492D01*
X73927873Y-81832492D02*
X74008685Y-81967179D01*
X74008685Y-81967179D02*
X74089498Y-82047991D01*
X74089498Y-82047991D02*
X74224185Y-82128803D01*
X74224185Y-82128803D02*
X74304997Y-82155741D01*
X74304997Y-82155741D02*
X74412746Y-82155741D01*
X74412746Y-82155741D02*
X74520496Y-82101866D01*
X74520496Y-82101866D02*
X74574371Y-82047991D01*
X74574371Y-82047991D02*
X74628246Y-81940241D01*
X74628246Y-81940241D02*
X74628246Y-81886367D01*
X74628246Y-81886367D02*
X74439684Y-81697805D01*
X74439684Y-81697805D02*
X74331934Y-81805554D01*
X74924557Y-81697805D02*
X74358872Y-81132119D01*
X74358872Y-81132119D02*
X75247806Y-81374556D01*
X75247806Y-81374556D02*
X74682120Y-80808871D01*
X75517180Y-81105182D02*
X74951494Y-80539497D01*
X74951494Y-80539497D02*
X75086181Y-80404810D01*
X75086181Y-80404810D02*
X75193931Y-80350935D01*
X75193931Y-80350935D02*
X75301680Y-80350935D01*
X75301680Y-80350935D02*
X75382493Y-80377872D01*
X75382493Y-80377872D02*
X75517180Y-80458685D01*
X75517180Y-80458685D02*
X75597992Y-80539497D01*
X75597992Y-80539497D02*
X75678804Y-80674184D01*
X75678804Y-80674184D02*
X75705741Y-80754996D01*
X75705741Y-80754996D02*
X75705741Y-80862746D01*
X75705741Y-80862746D02*
X75651867Y-80970495D01*
X75651867Y-80970495D02*
X75517180Y-81105182D01*
X74116435Y-43328431D02*
X74035623Y-43355368D01*
X74035623Y-43355368D02*
X73954811Y-43436180D01*
X73954811Y-43436180D02*
X73900936Y-43543930D01*
X73900936Y-43543930D02*
X73900936Y-43651680D01*
X73900936Y-43651680D02*
X73927873Y-43732492D01*
X73927873Y-43732492D02*
X74008685Y-43867179D01*
X74008685Y-43867179D02*
X74089498Y-43947991D01*
X74089498Y-43947991D02*
X74224185Y-44028803D01*
X74224185Y-44028803D02*
X74304997Y-44055741D01*
X74304997Y-44055741D02*
X74412746Y-44055741D01*
X74412746Y-44055741D02*
X74520496Y-44001866D01*
X74520496Y-44001866D02*
X74574371Y-43947991D01*
X74574371Y-43947991D02*
X74628246Y-43840241D01*
X74628246Y-43840241D02*
X74628246Y-43786367D01*
X74628246Y-43786367D02*
X74439684Y-43597805D01*
X74439684Y-43597805D02*
X74331934Y-43705554D01*
X74924557Y-43597805D02*
X74358872Y-43032119D01*
X74358872Y-43032119D02*
X75247806Y-43274556D01*
X75247806Y-43274556D02*
X74682120Y-42708871D01*
X75517180Y-43005182D02*
X74951494Y-42439497D01*
X74951494Y-42439497D02*
X75086181Y-42304810D01*
X75086181Y-42304810D02*
X75193931Y-42250935D01*
X75193931Y-42250935D02*
X75301680Y-42250935D01*
X75301680Y-42250935D02*
X75382493Y-42277872D01*
X75382493Y-42277872D02*
X75517180Y-42358685D01*
X75517180Y-42358685D02*
X75597992Y-42439497D01*
X75597992Y-42439497D02*
X75678804Y-42574184D01*
X75678804Y-42574184D02*
X75705741Y-42654996D01*
X75705741Y-42654996D02*
X75705741Y-42762746D01*
X75705741Y-42762746D02*
X75651867Y-42870495D01*
X75651867Y-42870495D02*
X75517180Y-43005182D01*
X99727998Y-74050868D02*
X99647185Y-74077805D01*
X99647185Y-74077805D02*
X99566373Y-74158618D01*
X99566373Y-74158618D02*
X99512498Y-74266367D01*
X99512498Y-74266367D02*
X99512498Y-74374117D01*
X99512498Y-74374117D02*
X99539436Y-74454929D01*
X99539436Y-74454929D02*
X99620248Y-74589616D01*
X99620248Y-74589616D02*
X99701060Y-74670428D01*
X99701060Y-74670428D02*
X99835747Y-74751241D01*
X99835747Y-74751241D02*
X99916560Y-74778178D01*
X99916560Y-74778178D02*
X100024309Y-74778178D01*
X100024309Y-74778178D02*
X100132059Y-74724303D01*
X100132059Y-74724303D02*
X100185934Y-74670428D01*
X100185934Y-74670428D02*
X100239808Y-74562679D01*
X100239808Y-74562679D02*
X100239808Y-74508804D01*
X100239808Y-74508804D02*
X100051247Y-74320242D01*
X100051247Y-74320242D02*
X99943497Y-74427992D01*
X100536120Y-74320242D02*
X99970434Y-73754557D01*
X99970434Y-73754557D02*
X100185934Y-73539057D01*
X100185934Y-73539057D02*
X100266746Y-73512120D01*
X100266746Y-73512120D02*
X100320621Y-73512120D01*
X100320621Y-73512120D02*
X100401433Y-73539057D01*
X100401433Y-73539057D02*
X100482245Y-73619870D01*
X100482245Y-73619870D02*
X100509182Y-73700682D01*
X100509182Y-73700682D02*
X100509182Y-73754557D01*
X100509182Y-73754557D02*
X100482245Y-73835369D01*
X100482245Y-73835369D02*
X100266746Y-74050868D01*
X100563057Y-73269683D02*
X100563057Y-73215809D01*
X100563057Y-73215809D02*
X100589995Y-73134996D01*
X100589995Y-73134996D02*
X100724682Y-73000309D01*
X100724682Y-73000309D02*
X100805494Y-72973372D01*
X100805494Y-72973372D02*
X100859369Y-72973372D01*
X100859369Y-72973372D02*
X100940181Y-73000309D01*
X100940181Y-73000309D02*
X100994056Y-73054184D01*
X100994056Y-73054184D02*
X101047930Y-73161934D01*
X101047930Y-73161934D02*
X101047930Y-73808431D01*
X101047930Y-73808431D02*
X101398117Y-73458245D01*
X101182618Y-72542373D02*
X101236492Y-72488499D01*
X101236492Y-72488499D02*
X101317305Y-72461561D01*
X101317305Y-72461561D02*
X101371179Y-72461561D01*
X101371179Y-72461561D02*
X101451992Y-72488499D01*
X101451992Y-72488499D02*
X101586679Y-72569311D01*
X101586679Y-72569311D02*
X101721366Y-72703998D01*
X101721366Y-72703998D02*
X101802178Y-72838685D01*
X101802178Y-72838685D02*
X101829115Y-72919497D01*
X101829115Y-72919497D02*
X101829115Y-72973372D01*
X101829115Y-72973372D02*
X101802178Y-73054184D01*
X101802178Y-73054184D02*
X101748303Y-73108059D01*
X101748303Y-73108059D02*
X101667491Y-73134996D01*
X101667491Y-73134996D02*
X101613616Y-73134996D01*
X101613616Y-73134996D02*
X101532804Y-73108059D01*
X101532804Y-73108059D02*
X101398117Y-73027247D01*
X101398117Y-73027247D02*
X101263430Y-72892560D01*
X101263430Y-72892560D02*
X101182618Y-72757873D01*
X101182618Y-72757873D02*
X101155680Y-72677060D01*
X101155680Y-72677060D02*
X101155680Y-72623186D01*
X101155680Y-72623186D02*
X101182618Y-72542373D01*
X99727998Y-76590868D02*
X99647185Y-76617805D01*
X99647185Y-76617805D02*
X99566373Y-76698618D01*
X99566373Y-76698618D02*
X99512498Y-76806367D01*
X99512498Y-76806367D02*
X99512498Y-76914117D01*
X99512498Y-76914117D02*
X99539436Y-76994929D01*
X99539436Y-76994929D02*
X99620248Y-77129616D01*
X99620248Y-77129616D02*
X99701060Y-77210428D01*
X99701060Y-77210428D02*
X99835747Y-77291241D01*
X99835747Y-77291241D02*
X99916560Y-77318178D01*
X99916560Y-77318178D02*
X100024309Y-77318178D01*
X100024309Y-77318178D02*
X100132059Y-77264303D01*
X100132059Y-77264303D02*
X100185934Y-77210428D01*
X100185934Y-77210428D02*
X100239808Y-77102679D01*
X100239808Y-77102679D02*
X100239808Y-77048804D01*
X100239808Y-77048804D02*
X100051247Y-76860242D01*
X100051247Y-76860242D02*
X99943497Y-76967992D01*
X100536120Y-76860242D02*
X99970434Y-76294557D01*
X99970434Y-76294557D02*
X100185934Y-76079057D01*
X100185934Y-76079057D02*
X100266746Y-76052120D01*
X100266746Y-76052120D02*
X100320621Y-76052120D01*
X100320621Y-76052120D02*
X100401433Y-76079057D01*
X100401433Y-76079057D02*
X100482245Y-76159870D01*
X100482245Y-76159870D02*
X100509182Y-76240682D01*
X100509182Y-76240682D02*
X100509182Y-76294557D01*
X100509182Y-76294557D02*
X100482245Y-76375369D01*
X100482245Y-76375369D02*
X100266746Y-76590868D01*
X101398117Y-75998245D02*
X101074868Y-76321494D01*
X101236492Y-76159870D02*
X100670807Y-75594184D01*
X100670807Y-75594184D02*
X100697744Y-75728871D01*
X100697744Y-75728871D02*
X100697744Y-75836621D01*
X100697744Y-75836621D02*
X100670807Y-75917433D01*
X101667491Y-75728871D02*
X101775240Y-75621121D01*
X101775240Y-75621121D02*
X101802178Y-75540309D01*
X101802178Y-75540309D02*
X101802178Y-75486434D01*
X101802178Y-75486434D02*
X101775240Y-75351747D01*
X101775240Y-75351747D02*
X101694428Y-75217060D01*
X101694428Y-75217060D02*
X101478929Y-75001561D01*
X101478929Y-75001561D02*
X101398117Y-74974624D01*
X101398117Y-74974624D02*
X101344242Y-74974624D01*
X101344242Y-74974624D02*
X101263430Y-75001561D01*
X101263430Y-75001561D02*
X101155680Y-75109311D01*
X101155680Y-75109311D02*
X101128743Y-75190123D01*
X101128743Y-75190123D02*
X101128743Y-75243998D01*
X101128743Y-75243998D02*
X101155680Y-75324810D01*
X101155680Y-75324810D02*
X101290367Y-75459497D01*
X101290367Y-75459497D02*
X101371179Y-75486434D01*
X101371179Y-75486434D02*
X101425054Y-75486434D01*
X101425054Y-75486434D02*
X101505866Y-75459497D01*
X101505866Y-75459497D02*
X101613616Y-75351747D01*
X101613616Y-75351747D02*
X101640553Y-75270935D01*
X101640553Y-75270935D02*
X101640553Y-75217060D01*
X101640553Y-75217060D02*
X101613616Y-75136248D01*
X74043372Y-45841494D02*
X73962560Y-45868431D01*
X73962560Y-45868431D02*
X73881748Y-45949243D01*
X73881748Y-45949243D02*
X73827873Y-46056993D01*
X73827873Y-46056993D02*
X73827873Y-46164742D01*
X73827873Y-46164742D02*
X73854810Y-46245555D01*
X73854810Y-46245555D02*
X73935623Y-46380242D01*
X73935623Y-46380242D02*
X74016435Y-46461054D01*
X74016435Y-46461054D02*
X74151122Y-46541866D01*
X74151122Y-46541866D02*
X74231934Y-46568803D01*
X74231934Y-46568803D02*
X74339684Y-46568803D01*
X74339684Y-46568803D02*
X74447433Y-46514929D01*
X74447433Y-46514929D02*
X74501308Y-46461054D01*
X74501308Y-46461054D02*
X74555183Y-46353304D01*
X74555183Y-46353304D02*
X74555183Y-46299429D01*
X74555183Y-46299429D02*
X74366621Y-46110868D01*
X74366621Y-46110868D02*
X74258871Y-46218617D01*
X74851494Y-46110868D02*
X74285809Y-45545182D01*
X74285809Y-45545182D02*
X74501308Y-45329683D01*
X74501308Y-45329683D02*
X74582120Y-45302746D01*
X74582120Y-45302746D02*
X74635995Y-45302746D01*
X74635995Y-45302746D02*
X74716807Y-45329683D01*
X74716807Y-45329683D02*
X74797619Y-45410495D01*
X74797619Y-45410495D02*
X74824557Y-45491307D01*
X74824557Y-45491307D02*
X74824557Y-45545182D01*
X74824557Y-45545182D02*
X74797619Y-45625994D01*
X74797619Y-45625994D02*
X74582120Y-45841494D01*
X74878432Y-45060309D02*
X74878432Y-45006434D01*
X74878432Y-45006434D02*
X74905369Y-44925622D01*
X74905369Y-44925622D02*
X75040056Y-44790935D01*
X75040056Y-44790935D02*
X75120868Y-44763998D01*
X75120868Y-44763998D02*
X75174743Y-44763998D01*
X75174743Y-44763998D02*
X75255555Y-44790935D01*
X75255555Y-44790935D02*
X75309430Y-44844810D01*
X75309430Y-44844810D02*
X75363305Y-44952559D01*
X75363305Y-44952559D02*
X75363305Y-45599057D01*
X75363305Y-45599057D02*
X75713491Y-45248871D01*
X99727998Y-79130868D02*
X99647185Y-79157805D01*
X99647185Y-79157805D02*
X99566373Y-79238618D01*
X99566373Y-79238618D02*
X99512498Y-79346367D01*
X99512498Y-79346367D02*
X99512498Y-79454117D01*
X99512498Y-79454117D02*
X99539436Y-79534929D01*
X99539436Y-79534929D02*
X99620248Y-79669616D01*
X99620248Y-79669616D02*
X99701060Y-79750428D01*
X99701060Y-79750428D02*
X99835747Y-79831241D01*
X99835747Y-79831241D02*
X99916560Y-79858178D01*
X99916560Y-79858178D02*
X100024309Y-79858178D01*
X100024309Y-79858178D02*
X100132059Y-79804303D01*
X100132059Y-79804303D02*
X100185934Y-79750428D01*
X100185934Y-79750428D02*
X100239808Y-79642679D01*
X100239808Y-79642679D02*
X100239808Y-79588804D01*
X100239808Y-79588804D02*
X100051247Y-79400242D01*
X100051247Y-79400242D02*
X99943497Y-79507992D01*
X100536120Y-79400242D02*
X99970434Y-78834557D01*
X99970434Y-78834557D02*
X100185934Y-78619057D01*
X100185934Y-78619057D02*
X100266746Y-78592120D01*
X100266746Y-78592120D02*
X100320621Y-78592120D01*
X100320621Y-78592120D02*
X100401433Y-78619057D01*
X100401433Y-78619057D02*
X100482245Y-78699870D01*
X100482245Y-78699870D02*
X100509182Y-78780682D01*
X100509182Y-78780682D02*
X100509182Y-78834557D01*
X100509182Y-78834557D02*
X100482245Y-78915369D01*
X100482245Y-78915369D02*
X100266746Y-79130868D01*
X101398117Y-78538245D02*
X101074868Y-78861494D01*
X101236492Y-78699870D02*
X100670807Y-78134184D01*
X100670807Y-78134184D02*
X100697744Y-78268871D01*
X100697744Y-78268871D02*
X100697744Y-78376621D01*
X100697744Y-78376621D02*
X100670807Y-78457433D01*
X101398117Y-77891747D02*
X101317305Y-77918685D01*
X101317305Y-77918685D02*
X101263430Y-77918685D01*
X101263430Y-77918685D02*
X101182618Y-77891747D01*
X101182618Y-77891747D02*
X101155680Y-77864810D01*
X101155680Y-77864810D02*
X101128743Y-77783998D01*
X101128743Y-77783998D02*
X101128743Y-77730123D01*
X101128743Y-77730123D02*
X101155680Y-77649311D01*
X101155680Y-77649311D02*
X101263430Y-77541561D01*
X101263430Y-77541561D02*
X101344242Y-77514624D01*
X101344242Y-77514624D02*
X101398117Y-77514624D01*
X101398117Y-77514624D02*
X101478929Y-77541561D01*
X101478929Y-77541561D02*
X101505866Y-77568499D01*
X101505866Y-77568499D02*
X101532804Y-77649311D01*
X101532804Y-77649311D02*
X101532804Y-77703186D01*
X101532804Y-77703186D02*
X101505866Y-77783998D01*
X101505866Y-77783998D02*
X101398117Y-77891747D01*
X101398117Y-77891747D02*
X101371179Y-77972560D01*
X101371179Y-77972560D02*
X101371179Y-78026434D01*
X101371179Y-78026434D02*
X101398117Y-78107247D01*
X101398117Y-78107247D02*
X101505866Y-78214996D01*
X101505866Y-78214996D02*
X101586679Y-78241934D01*
X101586679Y-78241934D02*
X101640553Y-78241934D01*
X101640553Y-78241934D02*
X101721366Y-78214996D01*
X101721366Y-78214996D02*
X101829115Y-78107247D01*
X101829115Y-78107247D02*
X101856053Y-78026434D01*
X101856053Y-78026434D02*
X101856053Y-77972560D01*
X101856053Y-77972560D02*
X101829115Y-77891747D01*
X101829115Y-77891747D02*
X101721366Y-77783998D01*
X101721366Y-77783998D02*
X101640553Y-77757060D01*
X101640553Y-77757060D02*
X101586679Y-77757060D01*
X101586679Y-77757060D02*
X101505866Y-77783998D01*
X74143372Y-58541494D02*
X74062560Y-58568431D01*
X74062560Y-58568431D02*
X73981748Y-58649243D01*
X73981748Y-58649243D02*
X73927873Y-58756993D01*
X73927873Y-58756993D02*
X73927873Y-58864742D01*
X73927873Y-58864742D02*
X73954810Y-58945555D01*
X73954810Y-58945555D02*
X74035623Y-59080242D01*
X74035623Y-59080242D02*
X74116435Y-59161054D01*
X74116435Y-59161054D02*
X74251122Y-59241866D01*
X74251122Y-59241866D02*
X74331934Y-59268803D01*
X74331934Y-59268803D02*
X74439684Y-59268803D01*
X74439684Y-59268803D02*
X74547433Y-59214929D01*
X74547433Y-59214929D02*
X74601308Y-59161054D01*
X74601308Y-59161054D02*
X74655183Y-59053304D01*
X74655183Y-59053304D02*
X74655183Y-58999429D01*
X74655183Y-58999429D02*
X74466621Y-58810868D01*
X74466621Y-58810868D02*
X74358871Y-58918617D01*
X74951494Y-58810868D02*
X74385809Y-58245182D01*
X74385809Y-58245182D02*
X74601308Y-58029683D01*
X74601308Y-58029683D02*
X74682120Y-58002746D01*
X74682120Y-58002746D02*
X74735995Y-58002746D01*
X74735995Y-58002746D02*
X74816807Y-58029683D01*
X74816807Y-58029683D02*
X74897619Y-58110495D01*
X74897619Y-58110495D02*
X74924557Y-58191307D01*
X74924557Y-58191307D02*
X74924557Y-58245182D01*
X74924557Y-58245182D02*
X74897619Y-58325994D01*
X74897619Y-58325994D02*
X74682120Y-58541494D01*
X75193931Y-57437060D02*
X75086181Y-57544810D01*
X75086181Y-57544810D02*
X75059244Y-57625622D01*
X75059244Y-57625622D02*
X75059244Y-57679497D01*
X75059244Y-57679497D02*
X75086181Y-57814184D01*
X75086181Y-57814184D02*
X75166993Y-57948871D01*
X75166993Y-57948871D02*
X75382493Y-58164370D01*
X75382493Y-58164370D02*
X75463305Y-58191307D01*
X75463305Y-58191307D02*
X75517180Y-58191307D01*
X75517180Y-58191307D02*
X75597992Y-58164370D01*
X75597992Y-58164370D02*
X75705741Y-58056620D01*
X75705741Y-58056620D02*
X75732679Y-57975808D01*
X75732679Y-57975808D02*
X75732679Y-57921933D01*
X75732679Y-57921933D02*
X75705741Y-57841121D01*
X75705741Y-57841121D02*
X75571054Y-57706434D01*
X75571054Y-57706434D02*
X75490242Y-57679497D01*
X75490242Y-57679497D02*
X75436367Y-57679497D01*
X75436367Y-57679497D02*
X75355555Y-57706434D01*
X75355555Y-57706434D02*
X75247806Y-57814184D01*
X75247806Y-57814184D02*
X75220868Y-57894996D01*
X75220868Y-57894996D02*
X75220868Y-57948871D01*
X75220868Y-57948871D02*
X75247806Y-58029683D01*
X99727998Y-71520868D02*
X99647185Y-71547805D01*
X99647185Y-71547805D02*
X99566373Y-71628618D01*
X99566373Y-71628618D02*
X99512498Y-71736367D01*
X99512498Y-71736367D02*
X99512498Y-71844117D01*
X99512498Y-71844117D02*
X99539436Y-71924929D01*
X99539436Y-71924929D02*
X99620248Y-72059616D01*
X99620248Y-72059616D02*
X99701060Y-72140428D01*
X99701060Y-72140428D02*
X99835747Y-72221241D01*
X99835747Y-72221241D02*
X99916560Y-72248178D01*
X99916560Y-72248178D02*
X100024309Y-72248178D01*
X100024309Y-72248178D02*
X100132059Y-72194303D01*
X100132059Y-72194303D02*
X100185934Y-72140428D01*
X100185934Y-72140428D02*
X100239808Y-72032679D01*
X100239808Y-72032679D02*
X100239808Y-71978804D01*
X100239808Y-71978804D02*
X100051247Y-71790242D01*
X100051247Y-71790242D02*
X99943497Y-71897992D01*
X100536120Y-71790242D02*
X99970434Y-71224557D01*
X99970434Y-71224557D02*
X100185934Y-71009057D01*
X100185934Y-71009057D02*
X100266746Y-70982120D01*
X100266746Y-70982120D02*
X100320621Y-70982120D01*
X100320621Y-70982120D02*
X100401433Y-71009057D01*
X100401433Y-71009057D02*
X100482245Y-71089870D01*
X100482245Y-71089870D02*
X100509182Y-71170682D01*
X100509182Y-71170682D02*
X100509182Y-71224557D01*
X100509182Y-71224557D02*
X100482245Y-71305369D01*
X100482245Y-71305369D02*
X100266746Y-71520868D01*
X100563057Y-70739683D02*
X100563057Y-70685809D01*
X100563057Y-70685809D02*
X100589995Y-70604996D01*
X100589995Y-70604996D02*
X100724682Y-70470309D01*
X100724682Y-70470309D02*
X100805494Y-70443372D01*
X100805494Y-70443372D02*
X100859369Y-70443372D01*
X100859369Y-70443372D02*
X100940181Y-70470309D01*
X100940181Y-70470309D02*
X100994056Y-70524184D01*
X100994056Y-70524184D02*
X101047930Y-70631934D01*
X101047930Y-70631934D02*
X101047930Y-71278431D01*
X101047930Y-71278431D02*
X101398117Y-70928245D01*
X101936865Y-70389497D02*
X101613616Y-70712746D01*
X101775240Y-70551121D02*
X101209555Y-69985436D01*
X101209555Y-69985436D02*
X101236492Y-70120123D01*
X101236492Y-70120123D02*
X101236492Y-70227873D01*
X101236492Y-70227873D02*
X101209555Y-70308685D01*
X99727998Y-66430868D02*
X99647185Y-66457805D01*
X99647185Y-66457805D02*
X99566373Y-66538618D01*
X99566373Y-66538618D02*
X99512498Y-66646367D01*
X99512498Y-66646367D02*
X99512498Y-66754117D01*
X99512498Y-66754117D02*
X99539436Y-66834929D01*
X99539436Y-66834929D02*
X99620248Y-66969616D01*
X99620248Y-66969616D02*
X99701060Y-67050428D01*
X99701060Y-67050428D02*
X99835747Y-67131241D01*
X99835747Y-67131241D02*
X99916560Y-67158178D01*
X99916560Y-67158178D02*
X100024309Y-67158178D01*
X100024309Y-67158178D02*
X100132059Y-67104303D01*
X100132059Y-67104303D02*
X100185934Y-67050428D01*
X100185934Y-67050428D02*
X100239808Y-66942679D01*
X100239808Y-66942679D02*
X100239808Y-66888804D01*
X100239808Y-66888804D02*
X100051247Y-66700242D01*
X100051247Y-66700242D02*
X99943497Y-66807992D01*
X100536120Y-66700242D02*
X99970434Y-66134557D01*
X99970434Y-66134557D02*
X100185934Y-65919057D01*
X100185934Y-65919057D02*
X100266746Y-65892120D01*
X100266746Y-65892120D02*
X100320621Y-65892120D01*
X100320621Y-65892120D02*
X100401433Y-65919057D01*
X100401433Y-65919057D02*
X100482245Y-65999870D01*
X100482245Y-65999870D02*
X100509182Y-66080682D01*
X100509182Y-66080682D02*
X100509182Y-66134557D01*
X100509182Y-66134557D02*
X100482245Y-66215369D01*
X100482245Y-66215369D02*
X100266746Y-66430868D01*
X100563057Y-65649683D02*
X100563057Y-65595809D01*
X100563057Y-65595809D02*
X100589995Y-65514996D01*
X100589995Y-65514996D02*
X100724682Y-65380309D01*
X100724682Y-65380309D02*
X100805494Y-65353372D01*
X100805494Y-65353372D02*
X100859369Y-65353372D01*
X100859369Y-65353372D02*
X100940181Y-65380309D01*
X100940181Y-65380309D02*
X100994056Y-65434184D01*
X100994056Y-65434184D02*
X101047930Y-65541934D01*
X101047930Y-65541934D02*
X101047930Y-66188431D01*
X101047930Y-66188431D02*
X101398117Y-65838245D01*
X101101805Y-65110935D02*
X101101805Y-65057060D01*
X101101805Y-65057060D02*
X101128743Y-64976248D01*
X101128743Y-64976248D02*
X101263430Y-64841561D01*
X101263430Y-64841561D02*
X101344242Y-64814624D01*
X101344242Y-64814624D02*
X101398117Y-64814624D01*
X101398117Y-64814624D02*
X101478929Y-64841561D01*
X101478929Y-64841561D02*
X101532804Y-64895436D01*
X101532804Y-64895436D02*
X101586679Y-65003186D01*
X101586679Y-65003186D02*
X101586679Y-65649683D01*
X101586679Y-65649683D02*
X101936865Y-65299497D01*
X74116435Y-68728431D02*
X74035623Y-68755368D01*
X74035623Y-68755368D02*
X73954811Y-68836180D01*
X73954811Y-68836180D02*
X73900936Y-68943930D01*
X73900936Y-68943930D02*
X73900936Y-69051680D01*
X73900936Y-69051680D02*
X73927873Y-69132492D01*
X73927873Y-69132492D02*
X74008685Y-69267179D01*
X74008685Y-69267179D02*
X74089498Y-69347991D01*
X74089498Y-69347991D02*
X74224185Y-69428803D01*
X74224185Y-69428803D02*
X74304997Y-69455741D01*
X74304997Y-69455741D02*
X74412746Y-69455741D01*
X74412746Y-69455741D02*
X74520496Y-69401866D01*
X74520496Y-69401866D02*
X74574371Y-69347991D01*
X74574371Y-69347991D02*
X74628246Y-69240241D01*
X74628246Y-69240241D02*
X74628246Y-69186367D01*
X74628246Y-69186367D02*
X74439684Y-68997805D01*
X74439684Y-68997805D02*
X74331934Y-69105554D01*
X74924557Y-68997805D02*
X74358872Y-68432119D01*
X74358872Y-68432119D02*
X75247806Y-68674556D01*
X75247806Y-68674556D02*
X74682120Y-68108871D01*
X75517180Y-68405182D02*
X74951494Y-67839497D01*
X74951494Y-67839497D02*
X75086181Y-67704810D01*
X75086181Y-67704810D02*
X75193931Y-67650935D01*
X75193931Y-67650935D02*
X75301680Y-67650935D01*
X75301680Y-67650935D02*
X75382493Y-67677872D01*
X75382493Y-67677872D02*
X75517180Y-67758685D01*
X75517180Y-67758685D02*
X75597992Y-67839497D01*
X75597992Y-67839497D02*
X75678804Y-67974184D01*
X75678804Y-67974184D02*
X75705741Y-68054996D01*
X75705741Y-68054996D02*
X75705741Y-68162746D01*
X75705741Y-68162746D02*
X75651867Y-68270495D01*
X75651867Y-68270495D02*
X75517180Y-68405182D01*
X73573998Y-84210868D02*
X73493185Y-84237805D01*
X73493185Y-84237805D02*
X73412373Y-84318618D01*
X73412373Y-84318618D02*
X73358498Y-84426367D01*
X73358498Y-84426367D02*
X73358498Y-84534117D01*
X73358498Y-84534117D02*
X73385436Y-84614929D01*
X73385436Y-84614929D02*
X73466248Y-84749616D01*
X73466248Y-84749616D02*
X73547060Y-84830428D01*
X73547060Y-84830428D02*
X73681747Y-84911241D01*
X73681747Y-84911241D02*
X73762560Y-84938178D01*
X73762560Y-84938178D02*
X73870309Y-84938178D01*
X73870309Y-84938178D02*
X73978059Y-84884303D01*
X73978059Y-84884303D02*
X74031934Y-84830428D01*
X74031934Y-84830428D02*
X74085808Y-84722679D01*
X74085808Y-84722679D02*
X74085808Y-84668804D01*
X74085808Y-84668804D02*
X73897247Y-84480242D01*
X73897247Y-84480242D02*
X73789497Y-84587992D01*
X74382120Y-84480242D02*
X73816434Y-83914557D01*
X73816434Y-83914557D02*
X74031934Y-83699057D01*
X74031934Y-83699057D02*
X74112746Y-83672120D01*
X74112746Y-83672120D02*
X74166621Y-83672120D01*
X74166621Y-83672120D02*
X74247433Y-83699057D01*
X74247433Y-83699057D02*
X74328245Y-83779870D01*
X74328245Y-83779870D02*
X74355182Y-83860682D01*
X74355182Y-83860682D02*
X74355182Y-83914557D01*
X74355182Y-83914557D02*
X74328245Y-83995369D01*
X74328245Y-83995369D02*
X74112746Y-84210868D01*
X75244117Y-83618245D02*
X74920868Y-83941494D01*
X75082492Y-83779870D02*
X74516807Y-83214184D01*
X74516807Y-83214184D02*
X74543744Y-83348871D01*
X74543744Y-83348871D02*
X74543744Y-83456621D01*
X74543744Y-83456621D02*
X74516807Y-83537433D01*
X75351866Y-82756248D02*
X75728990Y-83133372D01*
X75001680Y-82675436D02*
X75271054Y-83214184D01*
X75271054Y-83214184D02*
X75621240Y-82863998D01*
X99550749Y-41300242D02*
X100304996Y-41677366D01*
X100304996Y-41677366D02*
X99927873Y-40923118D01*
X100628245Y-41300242D02*
X100735995Y-41246367D01*
X100735995Y-41246367D02*
X100870682Y-41111680D01*
X100870682Y-41111680D02*
X100897619Y-41030868D01*
X100897619Y-41030868D02*
X100897619Y-40976993D01*
X100897619Y-40976993D02*
X100870682Y-40896181D01*
X100870682Y-40896181D02*
X100816807Y-40842306D01*
X100816807Y-40842306D02*
X100735995Y-40815369D01*
X100735995Y-40815369D02*
X100682120Y-40815369D01*
X100682120Y-40815369D02*
X100601308Y-40842306D01*
X100601308Y-40842306D02*
X100466621Y-40923118D01*
X100466621Y-40923118D02*
X100385808Y-40950056D01*
X100385808Y-40950056D02*
X100331934Y-40950056D01*
X100331934Y-40950056D02*
X100251121Y-40923118D01*
X100251121Y-40923118D02*
X100197247Y-40869244D01*
X100197247Y-40869244D02*
X100170309Y-40788431D01*
X100170309Y-40788431D02*
X100170309Y-40734557D01*
X100170309Y-40734557D02*
X100197247Y-40653744D01*
X100197247Y-40653744D02*
X100331934Y-40519057D01*
X100331934Y-40519057D02*
X100439683Y-40465183D01*
X101059244Y-40384370D02*
X101328618Y-40653744D01*
X100574370Y-40276621D02*
X101059244Y-40384370D01*
X101059244Y-40384370D02*
X100951494Y-39899497D01*
X101651866Y-40276621D02*
X101759616Y-40222746D01*
X101759616Y-40222746D02*
X101894303Y-40088059D01*
X101894303Y-40088059D02*
X101921240Y-40007247D01*
X101921240Y-40007247D02*
X101921240Y-39953372D01*
X101921240Y-39953372D02*
X101894303Y-39872560D01*
X101894303Y-39872560D02*
X101840428Y-39818685D01*
X101840428Y-39818685D02*
X101759616Y-39791748D01*
X101759616Y-39791748D02*
X101705741Y-39791748D01*
X101705741Y-39791748D02*
X101624929Y-39818685D01*
X101624929Y-39818685D02*
X101490242Y-39899497D01*
X101490242Y-39899497D02*
X101409430Y-39926435D01*
X101409430Y-39926435D02*
X101355555Y-39926435D01*
X101355555Y-39926435D02*
X101274743Y-39899497D01*
X101274743Y-39899497D02*
X101220868Y-39845622D01*
X101220868Y-39845622D02*
X101193930Y-39764810D01*
X101193930Y-39764810D02*
X101193930Y-39710935D01*
X101193930Y-39710935D02*
X101220868Y-39630123D01*
X101220868Y-39630123D02*
X101355555Y-39495436D01*
X101355555Y-39495436D02*
X101463304Y-39441561D01*
X73473998Y-76590868D02*
X73393185Y-76617805D01*
X73393185Y-76617805D02*
X73312373Y-76698618D01*
X73312373Y-76698618D02*
X73258498Y-76806367D01*
X73258498Y-76806367D02*
X73258498Y-76914117D01*
X73258498Y-76914117D02*
X73285436Y-76994929D01*
X73285436Y-76994929D02*
X73366248Y-77129616D01*
X73366248Y-77129616D02*
X73447060Y-77210428D01*
X73447060Y-77210428D02*
X73581747Y-77291241D01*
X73581747Y-77291241D02*
X73662560Y-77318178D01*
X73662560Y-77318178D02*
X73770309Y-77318178D01*
X73770309Y-77318178D02*
X73878059Y-77264303D01*
X73878059Y-77264303D02*
X73931934Y-77210428D01*
X73931934Y-77210428D02*
X73985808Y-77102679D01*
X73985808Y-77102679D02*
X73985808Y-77048804D01*
X73985808Y-77048804D02*
X73797247Y-76860242D01*
X73797247Y-76860242D02*
X73689497Y-76967992D01*
X74282120Y-76860242D02*
X73716434Y-76294557D01*
X73716434Y-76294557D02*
X73931934Y-76079057D01*
X73931934Y-76079057D02*
X74012746Y-76052120D01*
X74012746Y-76052120D02*
X74066621Y-76052120D01*
X74066621Y-76052120D02*
X74147433Y-76079057D01*
X74147433Y-76079057D02*
X74228245Y-76159870D01*
X74228245Y-76159870D02*
X74255182Y-76240682D01*
X74255182Y-76240682D02*
X74255182Y-76294557D01*
X74255182Y-76294557D02*
X74228245Y-76375369D01*
X74228245Y-76375369D02*
X74012746Y-76590868D01*
X75144117Y-75998245D02*
X74820868Y-76321494D01*
X74982492Y-76159870D02*
X74416807Y-75594184D01*
X74416807Y-75594184D02*
X74443744Y-75728871D01*
X74443744Y-75728871D02*
X74443744Y-75836621D01*
X74443744Y-75836621D02*
X74416807Y-75917433D01*
X74847805Y-75270935D02*
X74847805Y-75217060D01*
X74847805Y-75217060D02*
X74874743Y-75136248D01*
X74874743Y-75136248D02*
X75009430Y-75001561D01*
X75009430Y-75001561D02*
X75090242Y-74974624D01*
X75090242Y-74974624D02*
X75144117Y-74974624D01*
X75144117Y-74974624D02*
X75224929Y-75001561D01*
X75224929Y-75001561D02*
X75278804Y-75055436D01*
X75278804Y-75055436D02*
X75332679Y-75163186D01*
X75332679Y-75163186D02*
X75332679Y-75809683D01*
X75332679Y-75809683D02*
X75682865Y-75459497D01*
X74043372Y-40751494D02*
X73962560Y-40778431D01*
X73962560Y-40778431D02*
X73881748Y-40859243D01*
X73881748Y-40859243D02*
X73827873Y-40966993D01*
X73827873Y-40966993D02*
X73827873Y-41074742D01*
X73827873Y-41074742D02*
X73854810Y-41155555D01*
X73854810Y-41155555D02*
X73935623Y-41290242D01*
X73935623Y-41290242D02*
X74016435Y-41371054D01*
X74016435Y-41371054D02*
X74151122Y-41451866D01*
X74151122Y-41451866D02*
X74231934Y-41478803D01*
X74231934Y-41478803D02*
X74339684Y-41478803D01*
X74339684Y-41478803D02*
X74447433Y-41424929D01*
X74447433Y-41424929D02*
X74501308Y-41371054D01*
X74501308Y-41371054D02*
X74555183Y-41263304D01*
X74555183Y-41263304D02*
X74555183Y-41209429D01*
X74555183Y-41209429D02*
X74366621Y-41020868D01*
X74366621Y-41020868D02*
X74258871Y-41128617D01*
X74851494Y-41020868D02*
X74285809Y-40455182D01*
X74285809Y-40455182D02*
X74501308Y-40239683D01*
X74501308Y-40239683D02*
X74582120Y-40212746D01*
X74582120Y-40212746D02*
X74635995Y-40212746D01*
X74635995Y-40212746D02*
X74716807Y-40239683D01*
X74716807Y-40239683D02*
X74797619Y-40320495D01*
X74797619Y-40320495D02*
X74824557Y-40401307D01*
X74824557Y-40401307D02*
X74824557Y-40455182D01*
X74824557Y-40455182D02*
X74797619Y-40535994D01*
X74797619Y-40535994D02*
X74582120Y-40751494D01*
X75713491Y-40158871D02*
X75390242Y-40482120D01*
X75551867Y-40320495D02*
X74986181Y-39754810D01*
X74986181Y-39754810D02*
X75013119Y-39889497D01*
X75013119Y-39889497D02*
X75013119Y-39997246D01*
X75013119Y-39997246D02*
X74986181Y-40078059D01*
X73619998Y-71510868D02*
X73539185Y-71537805D01*
X73539185Y-71537805D02*
X73458373Y-71618618D01*
X73458373Y-71618618D02*
X73404498Y-71726367D01*
X73404498Y-71726367D02*
X73404498Y-71834117D01*
X73404498Y-71834117D02*
X73431436Y-71914929D01*
X73431436Y-71914929D02*
X73512248Y-72049616D01*
X73512248Y-72049616D02*
X73593060Y-72130428D01*
X73593060Y-72130428D02*
X73727747Y-72211241D01*
X73727747Y-72211241D02*
X73808560Y-72238178D01*
X73808560Y-72238178D02*
X73916309Y-72238178D01*
X73916309Y-72238178D02*
X74024059Y-72184303D01*
X74024059Y-72184303D02*
X74077934Y-72130428D01*
X74077934Y-72130428D02*
X74131808Y-72022679D01*
X74131808Y-72022679D02*
X74131808Y-71968804D01*
X74131808Y-71968804D02*
X73943247Y-71780242D01*
X73943247Y-71780242D02*
X73835497Y-71887992D01*
X74428120Y-71780242D02*
X73862434Y-71214557D01*
X73862434Y-71214557D02*
X74077934Y-70999057D01*
X74077934Y-70999057D02*
X74158746Y-70972120D01*
X74158746Y-70972120D02*
X74212621Y-70972120D01*
X74212621Y-70972120D02*
X74293433Y-70999057D01*
X74293433Y-70999057D02*
X74374245Y-71079870D01*
X74374245Y-71079870D02*
X74401182Y-71160682D01*
X74401182Y-71160682D02*
X74401182Y-71214557D01*
X74401182Y-71214557D02*
X74374245Y-71295369D01*
X74374245Y-71295369D02*
X74158746Y-71510868D01*
X75290117Y-70918245D02*
X74966868Y-71241494D01*
X75128492Y-71079870D02*
X74562807Y-70514184D01*
X74562807Y-70514184D02*
X74589744Y-70648871D01*
X74589744Y-70648871D02*
X74589744Y-70756621D01*
X74589744Y-70756621D02*
X74562807Y-70837433D01*
X75074618Y-70002373D02*
X75128492Y-69948499D01*
X75128492Y-69948499D02*
X75209305Y-69921561D01*
X75209305Y-69921561D02*
X75263179Y-69921561D01*
X75263179Y-69921561D02*
X75343992Y-69948499D01*
X75343992Y-69948499D02*
X75478679Y-70029311D01*
X75478679Y-70029311D02*
X75613366Y-70163998D01*
X75613366Y-70163998D02*
X75694178Y-70298685D01*
X75694178Y-70298685D02*
X75721115Y-70379497D01*
X75721115Y-70379497D02*
X75721115Y-70433372D01*
X75721115Y-70433372D02*
X75694178Y-70514184D01*
X75694178Y-70514184D02*
X75640303Y-70568059D01*
X75640303Y-70568059D02*
X75559491Y-70594996D01*
X75559491Y-70594996D02*
X75505616Y-70594996D01*
X75505616Y-70594996D02*
X75424804Y-70568059D01*
X75424804Y-70568059D02*
X75290117Y-70487247D01*
X75290117Y-70487247D02*
X75155430Y-70352560D01*
X75155430Y-70352560D02*
X75074618Y-70217873D01*
X75074618Y-70217873D02*
X75047680Y-70137060D01*
X75047680Y-70137060D02*
X75047680Y-70083186D01*
X75047680Y-70083186D02*
X75074618Y-70002373D01*
X100468651Y-64173710D02*
X100010716Y-64092898D01*
X100145403Y-64496959D02*
X99579717Y-63931274D01*
X99579717Y-63931274D02*
X99795216Y-63715775D01*
X99795216Y-63715775D02*
X99876029Y-63688837D01*
X99876029Y-63688837D02*
X99929903Y-63688837D01*
X99929903Y-63688837D02*
X100010716Y-63715775D01*
X100010716Y-63715775D02*
X100091528Y-63796587D01*
X100091528Y-63796587D02*
X100118465Y-63877399D01*
X100118465Y-63877399D02*
X100118465Y-63931274D01*
X100118465Y-63931274D02*
X100091528Y-64012086D01*
X100091528Y-64012086D02*
X99876029Y-64227585D01*
X100145403Y-63365588D02*
X100603338Y-63823524D01*
X100603338Y-63823524D02*
X100684151Y-63850462D01*
X100684151Y-63850462D02*
X100738025Y-63850462D01*
X100738025Y-63850462D02*
X100818838Y-63823524D01*
X100818838Y-63823524D02*
X100926587Y-63715775D01*
X100926587Y-63715775D02*
X100953525Y-63634962D01*
X100953525Y-63634962D02*
X100953525Y-63581088D01*
X100953525Y-63581088D02*
X100926587Y-63500275D01*
X100926587Y-63500275D02*
X100468651Y-63042340D01*
X101303711Y-63338651D02*
X100738025Y-62772966D01*
X100738025Y-62772966D02*
X101626959Y-63015402D01*
X101626959Y-63015402D02*
X101061274Y-62449717D01*
X99727998Y-58820868D02*
X99647185Y-58847805D01*
X99647185Y-58847805D02*
X99566373Y-58928618D01*
X99566373Y-58928618D02*
X99512498Y-59036367D01*
X99512498Y-59036367D02*
X99512498Y-59144117D01*
X99512498Y-59144117D02*
X99539436Y-59224929D01*
X99539436Y-59224929D02*
X99620248Y-59359616D01*
X99620248Y-59359616D02*
X99701060Y-59440428D01*
X99701060Y-59440428D02*
X99835747Y-59521241D01*
X99835747Y-59521241D02*
X99916560Y-59548178D01*
X99916560Y-59548178D02*
X100024309Y-59548178D01*
X100024309Y-59548178D02*
X100132059Y-59494303D01*
X100132059Y-59494303D02*
X100185934Y-59440428D01*
X100185934Y-59440428D02*
X100239808Y-59332679D01*
X100239808Y-59332679D02*
X100239808Y-59278804D01*
X100239808Y-59278804D02*
X100051247Y-59090242D01*
X100051247Y-59090242D02*
X99943497Y-59197992D01*
X100536120Y-59090242D02*
X99970434Y-58524557D01*
X99970434Y-58524557D02*
X100185934Y-58309057D01*
X100185934Y-58309057D02*
X100266746Y-58282120D01*
X100266746Y-58282120D02*
X100320621Y-58282120D01*
X100320621Y-58282120D02*
X100401433Y-58309057D01*
X100401433Y-58309057D02*
X100482245Y-58389870D01*
X100482245Y-58389870D02*
X100509182Y-58470682D01*
X100509182Y-58470682D02*
X100509182Y-58524557D01*
X100509182Y-58524557D02*
X100482245Y-58605369D01*
X100482245Y-58605369D02*
X100266746Y-58820868D01*
X100563057Y-58039683D02*
X100563057Y-57985809D01*
X100563057Y-57985809D02*
X100589995Y-57904996D01*
X100589995Y-57904996D02*
X100724682Y-57770309D01*
X100724682Y-57770309D02*
X100805494Y-57743372D01*
X100805494Y-57743372D02*
X100859369Y-57743372D01*
X100859369Y-57743372D02*
X100940181Y-57770309D01*
X100940181Y-57770309D02*
X100994056Y-57824184D01*
X100994056Y-57824184D02*
X101047930Y-57931934D01*
X101047930Y-57931934D02*
X101047930Y-58578431D01*
X101047930Y-58578431D02*
X101398117Y-58228245D01*
X101020993Y-57473998D02*
X101398117Y-57096874D01*
X101398117Y-57096874D02*
X101721366Y-57904996D01*
X161226667Y-61297200D02*
X161369524Y-61344819D01*
X161369524Y-61344819D02*
X161607619Y-61344819D01*
X161607619Y-61344819D02*
X161702857Y-61297200D01*
X161702857Y-61297200D02*
X161750476Y-61249580D01*
X161750476Y-61249580D02*
X161798095Y-61154342D01*
X161798095Y-61154342D02*
X161798095Y-61059104D01*
X161798095Y-61059104D02*
X161750476Y-60963866D01*
X161750476Y-60963866D02*
X161702857Y-60916247D01*
X161702857Y-60916247D02*
X161607619Y-60868628D01*
X161607619Y-60868628D02*
X161417143Y-60821009D01*
X161417143Y-60821009D02*
X161321905Y-60773390D01*
X161321905Y-60773390D02*
X161274286Y-60725771D01*
X161274286Y-60725771D02*
X161226667Y-60630533D01*
X161226667Y-60630533D02*
X161226667Y-60535295D01*
X161226667Y-60535295D02*
X161274286Y-60440057D01*
X161274286Y-60440057D02*
X161321905Y-60392438D01*
X161321905Y-60392438D02*
X161417143Y-60344819D01*
X161417143Y-60344819D02*
X161655238Y-60344819D01*
X161655238Y-60344819D02*
X161798095Y-60392438D01*
X162131429Y-60344819D02*
X162369524Y-61344819D01*
X162369524Y-61344819D02*
X162560000Y-60630533D01*
X162560000Y-60630533D02*
X162750476Y-61344819D01*
X162750476Y-61344819D02*
X162988572Y-60344819D01*
X163512381Y-60773390D02*
X163417143Y-60725771D01*
X163417143Y-60725771D02*
X163369524Y-60678152D01*
X163369524Y-60678152D02*
X163321905Y-60582914D01*
X163321905Y-60582914D02*
X163321905Y-60535295D01*
X163321905Y-60535295D02*
X163369524Y-60440057D01*
X163369524Y-60440057D02*
X163417143Y-60392438D01*
X163417143Y-60392438D02*
X163512381Y-60344819D01*
X163512381Y-60344819D02*
X163702857Y-60344819D01*
X163702857Y-60344819D02*
X163798095Y-60392438D01*
X163798095Y-60392438D02*
X163845714Y-60440057D01*
X163845714Y-60440057D02*
X163893333Y-60535295D01*
X163893333Y-60535295D02*
X163893333Y-60582914D01*
X163893333Y-60582914D02*
X163845714Y-60678152D01*
X163845714Y-60678152D02*
X163798095Y-60725771D01*
X163798095Y-60725771D02*
X163702857Y-60773390D01*
X163702857Y-60773390D02*
X163512381Y-60773390D01*
X163512381Y-60773390D02*
X163417143Y-60821009D01*
X163417143Y-60821009D02*
X163369524Y-60868628D01*
X163369524Y-60868628D02*
X163321905Y-60963866D01*
X163321905Y-60963866D02*
X163321905Y-61154342D01*
X163321905Y-61154342D02*
X163369524Y-61249580D01*
X163369524Y-61249580D02*
X163417143Y-61297200D01*
X163417143Y-61297200D02*
X163512381Y-61344819D01*
X163512381Y-61344819D02*
X163702857Y-61344819D01*
X163702857Y-61344819D02*
X163798095Y-61297200D01*
X163798095Y-61297200D02*
X163845714Y-61249580D01*
X163845714Y-61249580D02*
X163893333Y-61154342D01*
X163893333Y-61154342D02*
X163893333Y-60963866D01*
X163893333Y-60963866D02*
X163845714Y-60868628D01*
X163845714Y-60868628D02*
X163798095Y-60821009D01*
X163798095Y-60821009D02*
X163702857Y-60773390D01*
X161226667Y-45747200D02*
X161369524Y-45794819D01*
X161369524Y-45794819D02*
X161607619Y-45794819D01*
X161607619Y-45794819D02*
X161702857Y-45747200D01*
X161702857Y-45747200D02*
X161750476Y-45699580D01*
X161750476Y-45699580D02*
X161798095Y-45604342D01*
X161798095Y-45604342D02*
X161798095Y-45509104D01*
X161798095Y-45509104D02*
X161750476Y-45413866D01*
X161750476Y-45413866D02*
X161702857Y-45366247D01*
X161702857Y-45366247D02*
X161607619Y-45318628D01*
X161607619Y-45318628D02*
X161417143Y-45271009D01*
X161417143Y-45271009D02*
X161321905Y-45223390D01*
X161321905Y-45223390D02*
X161274286Y-45175771D01*
X161274286Y-45175771D02*
X161226667Y-45080533D01*
X161226667Y-45080533D02*
X161226667Y-44985295D01*
X161226667Y-44985295D02*
X161274286Y-44890057D01*
X161274286Y-44890057D02*
X161321905Y-44842438D01*
X161321905Y-44842438D02*
X161417143Y-44794819D01*
X161417143Y-44794819D02*
X161655238Y-44794819D01*
X161655238Y-44794819D02*
X161798095Y-44842438D01*
X162131429Y-44794819D02*
X162369524Y-45794819D01*
X162369524Y-45794819D02*
X162560000Y-45080533D01*
X162560000Y-45080533D02*
X162750476Y-45794819D01*
X162750476Y-45794819D02*
X162988572Y-44794819D01*
X163274286Y-44794819D02*
X163940952Y-44794819D01*
X163940952Y-44794819D02*
X163512381Y-45794819D01*
X145676667Y-61297200D02*
X145819524Y-61344819D01*
X145819524Y-61344819D02*
X146057619Y-61344819D01*
X146057619Y-61344819D02*
X146152857Y-61297200D01*
X146152857Y-61297200D02*
X146200476Y-61249580D01*
X146200476Y-61249580D02*
X146248095Y-61154342D01*
X146248095Y-61154342D02*
X146248095Y-61059104D01*
X146248095Y-61059104D02*
X146200476Y-60963866D01*
X146200476Y-60963866D02*
X146152857Y-60916247D01*
X146152857Y-60916247D02*
X146057619Y-60868628D01*
X146057619Y-60868628D02*
X145867143Y-60821009D01*
X145867143Y-60821009D02*
X145771905Y-60773390D01*
X145771905Y-60773390D02*
X145724286Y-60725771D01*
X145724286Y-60725771D02*
X145676667Y-60630533D01*
X145676667Y-60630533D02*
X145676667Y-60535295D01*
X145676667Y-60535295D02*
X145724286Y-60440057D01*
X145724286Y-60440057D02*
X145771905Y-60392438D01*
X145771905Y-60392438D02*
X145867143Y-60344819D01*
X145867143Y-60344819D02*
X146105238Y-60344819D01*
X146105238Y-60344819D02*
X146248095Y-60392438D01*
X146581429Y-60344819D02*
X146819524Y-61344819D01*
X146819524Y-61344819D02*
X147010000Y-60630533D01*
X147010000Y-60630533D02*
X147200476Y-61344819D01*
X147200476Y-61344819D02*
X147438572Y-60344819D01*
X148248095Y-60344819D02*
X148057619Y-60344819D01*
X148057619Y-60344819D02*
X147962381Y-60392438D01*
X147962381Y-60392438D02*
X147914762Y-60440057D01*
X147914762Y-60440057D02*
X147819524Y-60582914D01*
X147819524Y-60582914D02*
X147771905Y-60773390D01*
X147771905Y-60773390D02*
X147771905Y-61154342D01*
X147771905Y-61154342D02*
X147819524Y-61249580D01*
X147819524Y-61249580D02*
X147867143Y-61297200D01*
X147867143Y-61297200D02*
X147962381Y-61344819D01*
X147962381Y-61344819D02*
X148152857Y-61344819D01*
X148152857Y-61344819D02*
X148248095Y-61297200D01*
X148248095Y-61297200D02*
X148295714Y-61249580D01*
X148295714Y-61249580D02*
X148343333Y-61154342D01*
X148343333Y-61154342D02*
X148343333Y-60916247D01*
X148343333Y-60916247D02*
X148295714Y-60821009D01*
X148295714Y-60821009D02*
X148248095Y-60773390D01*
X148248095Y-60773390D02*
X148152857Y-60725771D01*
X148152857Y-60725771D02*
X147962381Y-60725771D01*
X147962381Y-60725771D02*
X147867143Y-60773390D01*
X147867143Y-60773390D02*
X147819524Y-60821009D01*
X147819524Y-60821009D02*
X147771905Y-60916247D01*
X145676667Y-45747200D02*
X145819524Y-45794819D01*
X145819524Y-45794819D02*
X146057619Y-45794819D01*
X146057619Y-45794819D02*
X146152857Y-45747200D01*
X146152857Y-45747200D02*
X146200476Y-45699580D01*
X146200476Y-45699580D02*
X146248095Y-45604342D01*
X146248095Y-45604342D02*
X146248095Y-45509104D01*
X146248095Y-45509104D02*
X146200476Y-45413866D01*
X146200476Y-45413866D02*
X146152857Y-45366247D01*
X146152857Y-45366247D02*
X146057619Y-45318628D01*
X146057619Y-45318628D02*
X145867143Y-45271009D01*
X145867143Y-45271009D02*
X145771905Y-45223390D01*
X145771905Y-45223390D02*
X145724286Y-45175771D01*
X145724286Y-45175771D02*
X145676667Y-45080533D01*
X145676667Y-45080533D02*
X145676667Y-44985295D01*
X145676667Y-44985295D02*
X145724286Y-44890057D01*
X145724286Y-44890057D02*
X145771905Y-44842438D01*
X145771905Y-44842438D02*
X145867143Y-44794819D01*
X145867143Y-44794819D02*
X146105238Y-44794819D01*
X146105238Y-44794819D02*
X146248095Y-44842438D01*
X146581429Y-44794819D02*
X146819524Y-45794819D01*
X146819524Y-45794819D02*
X147010000Y-45080533D01*
X147010000Y-45080533D02*
X147200476Y-45794819D01*
X147200476Y-45794819D02*
X147438572Y-44794819D01*
X148295714Y-44794819D02*
X147819524Y-44794819D01*
X147819524Y-44794819D02*
X147771905Y-45271009D01*
X147771905Y-45271009D02*
X147819524Y-45223390D01*
X147819524Y-45223390D02*
X147914762Y-45175771D01*
X147914762Y-45175771D02*
X148152857Y-45175771D01*
X148152857Y-45175771D02*
X148248095Y-45223390D01*
X148248095Y-45223390D02*
X148295714Y-45271009D01*
X148295714Y-45271009D02*
X148343333Y-45366247D01*
X148343333Y-45366247D02*
X148343333Y-45604342D01*
X148343333Y-45604342D02*
X148295714Y-45699580D01*
X148295714Y-45699580D02*
X148248095Y-45747200D01*
X148248095Y-45747200D02*
X148152857Y-45794819D01*
X148152857Y-45794819D02*
X147914762Y-45794819D01*
X147914762Y-45794819D02*
X147819524Y-45747200D01*
X147819524Y-45747200D02*
X147771905Y-45699580D01*
X130126667Y-61297200D02*
X130269524Y-61344819D01*
X130269524Y-61344819D02*
X130507619Y-61344819D01*
X130507619Y-61344819D02*
X130602857Y-61297200D01*
X130602857Y-61297200D02*
X130650476Y-61249580D01*
X130650476Y-61249580D02*
X130698095Y-61154342D01*
X130698095Y-61154342D02*
X130698095Y-61059104D01*
X130698095Y-61059104D02*
X130650476Y-60963866D01*
X130650476Y-60963866D02*
X130602857Y-60916247D01*
X130602857Y-60916247D02*
X130507619Y-60868628D01*
X130507619Y-60868628D02*
X130317143Y-60821009D01*
X130317143Y-60821009D02*
X130221905Y-60773390D01*
X130221905Y-60773390D02*
X130174286Y-60725771D01*
X130174286Y-60725771D02*
X130126667Y-60630533D01*
X130126667Y-60630533D02*
X130126667Y-60535295D01*
X130126667Y-60535295D02*
X130174286Y-60440057D01*
X130174286Y-60440057D02*
X130221905Y-60392438D01*
X130221905Y-60392438D02*
X130317143Y-60344819D01*
X130317143Y-60344819D02*
X130555238Y-60344819D01*
X130555238Y-60344819D02*
X130698095Y-60392438D01*
X131031429Y-60344819D02*
X131269524Y-61344819D01*
X131269524Y-61344819D02*
X131460000Y-60630533D01*
X131460000Y-60630533D02*
X131650476Y-61344819D01*
X131650476Y-61344819D02*
X131888572Y-60344819D01*
X132698095Y-60678152D02*
X132698095Y-61344819D01*
X132460000Y-60297200D02*
X132221905Y-61011485D01*
X132221905Y-61011485D02*
X132840952Y-61011485D01*
X130126667Y-45747200D02*
X130269524Y-45794819D01*
X130269524Y-45794819D02*
X130507619Y-45794819D01*
X130507619Y-45794819D02*
X130602857Y-45747200D01*
X130602857Y-45747200D02*
X130650476Y-45699580D01*
X130650476Y-45699580D02*
X130698095Y-45604342D01*
X130698095Y-45604342D02*
X130698095Y-45509104D01*
X130698095Y-45509104D02*
X130650476Y-45413866D01*
X130650476Y-45413866D02*
X130602857Y-45366247D01*
X130602857Y-45366247D02*
X130507619Y-45318628D01*
X130507619Y-45318628D02*
X130317143Y-45271009D01*
X130317143Y-45271009D02*
X130221905Y-45223390D01*
X130221905Y-45223390D02*
X130174286Y-45175771D01*
X130174286Y-45175771D02*
X130126667Y-45080533D01*
X130126667Y-45080533D02*
X130126667Y-44985295D01*
X130126667Y-44985295D02*
X130174286Y-44890057D01*
X130174286Y-44890057D02*
X130221905Y-44842438D01*
X130221905Y-44842438D02*
X130317143Y-44794819D01*
X130317143Y-44794819D02*
X130555238Y-44794819D01*
X130555238Y-44794819D02*
X130698095Y-44842438D01*
X131031429Y-44794819D02*
X131269524Y-45794819D01*
X131269524Y-45794819D02*
X131460000Y-45080533D01*
X131460000Y-45080533D02*
X131650476Y-45794819D01*
X131650476Y-45794819D02*
X131888572Y-44794819D01*
X132174286Y-44794819D02*
X132793333Y-44794819D01*
X132793333Y-44794819D02*
X132460000Y-45175771D01*
X132460000Y-45175771D02*
X132602857Y-45175771D01*
X132602857Y-45175771D02*
X132698095Y-45223390D01*
X132698095Y-45223390D02*
X132745714Y-45271009D01*
X132745714Y-45271009D02*
X132793333Y-45366247D01*
X132793333Y-45366247D02*
X132793333Y-45604342D01*
X132793333Y-45604342D02*
X132745714Y-45699580D01*
X132745714Y-45699580D02*
X132698095Y-45747200D01*
X132698095Y-45747200D02*
X132602857Y-45794819D01*
X132602857Y-45794819D02*
X132317143Y-45794819D01*
X132317143Y-45794819D02*
X132221905Y-45747200D01*
X132221905Y-45747200D02*
X132174286Y-45699580D01*
X114576667Y-61297200D02*
X114719524Y-61344819D01*
X114719524Y-61344819D02*
X114957619Y-61344819D01*
X114957619Y-61344819D02*
X115052857Y-61297200D01*
X115052857Y-61297200D02*
X115100476Y-61249580D01*
X115100476Y-61249580D02*
X115148095Y-61154342D01*
X115148095Y-61154342D02*
X115148095Y-61059104D01*
X115148095Y-61059104D02*
X115100476Y-60963866D01*
X115100476Y-60963866D02*
X115052857Y-60916247D01*
X115052857Y-60916247D02*
X114957619Y-60868628D01*
X114957619Y-60868628D02*
X114767143Y-60821009D01*
X114767143Y-60821009D02*
X114671905Y-60773390D01*
X114671905Y-60773390D02*
X114624286Y-60725771D01*
X114624286Y-60725771D02*
X114576667Y-60630533D01*
X114576667Y-60630533D02*
X114576667Y-60535295D01*
X114576667Y-60535295D02*
X114624286Y-60440057D01*
X114624286Y-60440057D02*
X114671905Y-60392438D01*
X114671905Y-60392438D02*
X114767143Y-60344819D01*
X114767143Y-60344819D02*
X115005238Y-60344819D01*
X115005238Y-60344819D02*
X115148095Y-60392438D01*
X115481429Y-60344819D02*
X115719524Y-61344819D01*
X115719524Y-61344819D02*
X115910000Y-60630533D01*
X115910000Y-60630533D02*
X116100476Y-61344819D01*
X116100476Y-61344819D02*
X116338572Y-60344819D01*
X116671905Y-60440057D02*
X116719524Y-60392438D01*
X116719524Y-60392438D02*
X116814762Y-60344819D01*
X116814762Y-60344819D02*
X117052857Y-60344819D01*
X117052857Y-60344819D02*
X117148095Y-60392438D01*
X117148095Y-60392438D02*
X117195714Y-60440057D01*
X117195714Y-60440057D02*
X117243333Y-60535295D01*
X117243333Y-60535295D02*
X117243333Y-60630533D01*
X117243333Y-60630533D02*
X117195714Y-60773390D01*
X117195714Y-60773390D02*
X116624286Y-61344819D01*
X116624286Y-61344819D02*
X117243333Y-61344819D01*
X114576667Y-45747200D02*
X114719524Y-45794819D01*
X114719524Y-45794819D02*
X114957619Y-45794819D01*
X114957619Y-45794819D02*
X115052857Y-45747200D01*
X115052857Y-45747200D02*
X115100476Y-45699580D01*
X115100476Y-45699580D02*
X115148095Y-45604342D01*
X115148095Y-45604342D02*
X115148095Y-45509104D01*
X115148095Y-45509104D02*
X115100476Y-45413866D01*
X115100476Y-45413866D02*
X115052857Y-45366247D01*
X115052857Y-45366247D02*
X114957619Y-45318628D01*
X114957619Y-45318628D02*
X114767143Y-45271009D01*
X114767143Y-45271009D02*
X114671905Y-45223390D01*
X114671905Y-45223390D02*
X114624286Y-45175771D01*
X114624286Y-45175771D02*
X114576667Y-45080533D01*
X114576667Y-45080533D02*
X114576667Y-44985295D01*
X114576667Y-44985295D02*
X114624286Y-44890057D01*
X114624286Y-44890057D02*
X114671905Y-44842438D01*
X114671905Y-44842438D02*
X114767143Y-44794819D01*
X114767143Y-44794819D02*
X115005238Y-44794819D01*
X115005238Y-44794819D02*
X115148095Y-44842438D01*
X115481429Y-44794819D02*
X115719524Y-45794819D01*
X115719524Y-45794819D02*
X115910000Y-45080533D01*
X115910000Y-45080533D02*
X116100476Y-45794819D01*
X116100476Y-45794819D02*
X116338572Y-44794819D01*
X117243333Y-45794819D02*
X116671905Y-45794819D01*
X116957619Y-45794819D02*
X116957619Y-44794819D01*
X116957619Y-44794819D02*
X116862381Y-44937676D01*
X116862381Y-44937676D02*
X116767143Y-45032914D01*
X116767143Y-45032914D02*
X116671905Y-45080533D01*
D11*
%TO.C,U2*%
X98130000Y-67130000D02*
X98130000Y-67530000D01*
X77130000Y-39130000D02*
X77130000Y-39530000D01*
X77130000Y-41730000D02*
X77130000Y-42130000D01*
X98130000Y-72230000D02*
X98130000Y-72630000D01*
X83930000Y-87730000D02*
X77130000Y-87730000D01*
X98130000Y-62030000D02*
X98130000Y-62430000D01*
X98130000Y-84930000D02*
X98130000Y-85330000D01*
X98130000Y-39130000D02*
X98130000Y-39530000D01*
X80137000Y-39397000D02*
X80137000Y-36730000D01*
X98130000Y-56930000D02*
X98130000Y-57330000D01*
X77130000Y-36730000D02*
X98130000Y-36730000D01*
X77130000Y-82330000D02*
X77130000Y-82730000D01*
X77130000Y-59530000D02*
X77130000Y-59930000D01*
X77130000Y-84930000D02*
X77130000Y-85330000D01*
X77130000Y-46830000D02*
X77130000Y-47230000D01*
X77130000Y-56930000D02*
X77130000Y-57330000D01*
X98130000Y-59530000D02*
X98130000Y-59930000D01*
X98130000Y-87730000D02*
X91330000Y-87730000D01*
X98130000Y-46830000D02*
X98130000Y-47230000D01*
X77130000Y-69630000D02*
X77130000Y-70030000D01*
X77130000Y-39397000D02*
X80137000Y-39397000D01*
X77130000Y-54430000D02*
X77130000Y-54830000D01*
X77130000Y-67130000D02*
X77130000Y-67530000D01*
X86130000Y-87730000D02*
X86530000Y-87730000D01*
X77130000Y-49330000D02*
X77130000Y-49730000D01*
X98130000Y-41730000D02*
X98130000Y-42130000D01*
X77130000Y-77330000D02*
X77130000Y-77730000D01*
X88730000Y-87730000D02*
X89130000Y-87730000D01*
X98130000Y-49330000D02*
X98130000Y-49730000D01*
X77130000Y-72230000D02*
X77130000Y-72630000D01*
X98130000Y-64530000D02*
X98130000Y-64930000D01*
X77130000Y-51830000D02*
X77130000Y-52230000D01*
X77130000Y-62030000D02*
X77130000Y-62430000D01*
X77130000Y-79830000D02*
X77130000Y-80230000D01*
X77130000Y-74730000D02*
X77130000Y-75130000D01*
X98130000Y-69630000D02*
X98130000Y-70030000D01*
X98130000Y-51830000D02*
X98130000Y-52230000D01*
X98130000Y-79830000D02*
X98130000Y-80230000D01*
X98130000Y-54430000D02*
X98130000Y-54830000D01*
X77130000Y-36730000D02*
X77130000Y-37030000D01*
X98130000Y-82330000D02*
X98130000Y-82730000D01*
X98130000Y-74730000D02*
X98130000Y-75130000D01*
X98130000Y-44230000D02*
X98130000Y-44630000D01*
X77130000Y-64530000D02*
X77130000Y-64930000D01*
X98130000Y-36730000D02*
X98130000Y-37030000D01*
X77130000Y-44230000D02*
X77130000Y-44630000D01*
X98130000Y-77330000D02*
X98130000Y-77730000D01*
%TO.C,SW8*%
X155460000Y-61790000D02*
X155460000Y-75990000D01*
X155460000Y-75990000D02*
X169660000Y-75990000D01*
X169660000Y-75990000D02*
X169660000Y-61790000D01*
X169660000Y-61790000D02*
X155460000Y-61790000D01*
%TO.C,SW7*%
X155460000Y-46240000D02*
X155460000Y-60440000D01*
X155460000Y-60440000D02*
X169660000Y-60440000D01*
X169660000Y-60440000D02*
X169660000Y-46240000D01*
X169660000Y-46240000D02*
X155460000Y-46240000D01*
%TO.C,SW6*%
X139910000Y-61790000D02*
X139910000Y-75990000D01*
X139910000Y-75990000D02*
X154110000Y-75990000D01*
X154110000Y-75990000D02*
X154110000Y-61790000D01*
X154110000Y-61790000D02*
X139910000Y-61790000D01*
%TO.C,SW5*%
X139910000Y-46240000D02*
X139910000Y-60440000D01*
X139910000Y-60440000D02*
X154110000Y-60440000D01*
X154110000Y-60440000D02*
X154110000Y-46240000D01*
X154110000Y-46240000D02*
X139910000Y-46240000D01*
%TO.C,SW4*%
X124360000Y-61790000D02*
X124360000Y-75990000D01*
X124360000Y-75990000D02*
X138560000Y-75990000D01*
X138560000Y-75990000D02*
X138560000Y-61790000D01*
X138560000Y-61790000D02*
X124360000Y-61790000D01*
%TO.C,SW3*%
X124360000Y-46240000D02*
X124360000Y-60440000D01*
X124360000Y-60440000D02*
X138560000Y-60440000D01*
X138560000Y-60440000D02*
X138560000Y-46240000D01*
X138560000Y-46240000D02*
X124360000Y-46240000D01*
%TO.C,SW2*%
X108810000Y-61790000D02*
X108810000Y-75990000D01*
X108810000Y-75990000D02*
X123010000Y-75990000D01*
X123010000Y-75990000D02*
X123010000Y-61790000D01*
X123010000Y-61790000D02*
X108810000Y-61790000D01*
%TO.C,SW1*%
X108810000Y-46240000D02*
X108810000Y-60440000D01*
X108810000Y-60440000D02*
X123010000Y-60440000D01*
X123010000Y-60440000D02*
X123010000Y-46240000D01*
X123010000Y-46240000D02*
X108810000Y-46240000D01*
%TD*%
M02*
