%TF.GenerationSoftware,KiCad,Pcbnew,7.0.6*%
%TF.CreationDate,2023-07-15T16:08:07+01:00*%
%TF.ProjectId,Pico-Powered Keyboard,5069636f-2d50-46f7-9765-726564204b65,rev?*%
%TF.SameCoordinates,Original*%
%TF.FileFunction,Copper,L1,Top*%
%TF.FilePolarity,Positive*%
%FSLAX46Y46*%
G04 Gerber Fmt 4.6, Leading zero omitted, Abs format (unit mm)*
G04 Created by KiCad (PCBNEW 7.0.6) date 2023-07-15 16:08:07*
%MOMM*%
%LPD*%
G01*
G04 APERTURE LIST*
%TA.AperFunction,ComponentPad*%
%ADD10O,1.700000X1.700000*%
%TD*%
%TA.AperFunction,SMDPad,CuDef*%
%ADD11R,3.500000X1.700000*%
%TD*%
%TA.AperFunction,ComponentPad*%
%ADD12R,1.700000X1.700000*%
%TD*%
%TA.AperFunction,SMDPad,CuDef*%
%ADD13R,1.700000X3.500000*%
%TD*%
%TA.AperFunction,ComponentPad*%
%ADD14C,2.500000*%
%TD*%
%TA.AperFunction,Conductor*%
%ADD15C,0.250000*%
%TD*%
G04 APERTURE END LIST*
D10*
%TO.P,U2,1,GPIO0*%
%TO.N,Net-(U2-GPIO0)*%
X78740000Y-38100000D03*
D11*
X77840000Y-38100000D03*
D10*
%TO.P,U2,2,GPIO1*%
%TO.N,Net-(U2-GPIO1)*%
X78740000Y-40640000D03*
D11*
X77840000Y-40640000D03*
%TO.P,U2,3,GND*%
%TO.N,unconnected-(U2-GND-Pad3)*%
X77840000Y-43180000D03*
D12*
X78740000Y-43180000D03*
D10*
%TO.P,U2,4,GPIO2*%
%TO.N,Net-(U2-GPIO2)*%
X78740000Y-45720000D03*
D11*
X77840000Y-45720000D03*
D10*
%TO.P,U2,5,GPIO3*%
%TO.N,Net-(U2-GPIO3)*%
X78740000Y-48260000D03*
D11*
X77840000Y-48260000D03*
D10*
%TO.P,U2,6,GPIO4*%
%TO.N,Net-(U2-GPIO4)*%
X78740000Y-50800000D03*
D11*
X77840000Y-50800000D03*
%TO.P,U2,7,GPIO5*%
%TO.N,Net-(U2-GPIO5)*%
X77840000Y-53340000D03*
D10*
X78740000Y-53340000D03*
D12*
%TO.P,U2,8,GND*%
%TO.N,unconnected-(U2-GND-Pad8)*%
X78740000Y-55880000D03*
D11*
X77840000Y-55880000D03*
%TO.P,U2,9,GPIO6*%
%TO.N,Net-(U2-GPIO6)*%
X77840000Y-58420000D03*
D10*
X78740000Y-58420000D03*
%TO.P,U2,10,GPIO7*%
%TO.N,Net-(U2-GPIO7)*%
X78740000Y-60960000D03*
D11*
X77840000Y-60960000D03*
%TO.P,U2,11,GPIO8*%
%TO.N,unconnected-(U2-GPIO8-Pad11)*%
X77840000Y-63500000D03*
D10*
X78740000Y-63500000D03*
%TO.P,U2,12,GPIO9*%
%TO.N,unconnected-(U2-GPIO9-Pad12)*%
X78740000Y-66040000D03*
D11*
X77840000Y-66040000D03*
D12*
%TO.P,U2,13,GND*%
%TO.N,unconnected-(U2-GND-Pad13)*%
X78740000Y-68580000D03*
D11*
X77840000Y-68580000D03*
%TO.P,U2,14,GPIO10*%
%TO.N,unconnected-(U2-GPIO10-Pad14)*%
X77840000Y-71120000D03*
D10*
X78740000Y-71120000D03*
%TO.P,U2,15,GPIO11*%
%TO.N,unconnected-(U2-GPIO11-Pad15)*%
X78740000Y-73660000D03*
D11*
X77840000Y-73660000D03*
%TO.P,U2,16,GPIO12*%
%TO.N,unconnected-(U2-GPIO12-Pad16)*%
X77840000Y-76200000D03*
D10*
X78740000Y-76200000D03*
D11*
%TO.P,U2,17,GPIO13*%
%TO.N,unconnected-(U2-GPIO13-Pad17)*%
X77840000Y-78740000D03*
D10*
X78740000Y-78740000D03*
D11*
%TO.P,U2,18,GND*%
%TO.N,unconnected-(U2-GND-Pad18)*%
X77840000Y-81280000D03*
D12*
X78740000Y-81280000D03*
D10*
%TO.P,U2,19,GPIO14*%
%TO.N,unconnected-(U2-GPIO14-Pad19)*%
X78740000Y-83820000D03*
D11*
X77840000Y-83820000D03*
%TO.P,U2,20,GPIO15*%
%TO.N,unconnected-(U2-GPIO15-Pad20)*%
X77840000Y-86360000D03*
D10*
X78740000Y-86360000D03*
D11*
%TO.P,U2,21,GPIO16*%
%TO.N,unconnected-(U2-GPIO16-Pad21)*%
X97420000Y-86360000D03*
D10*
X96520000Y-86360000D03*
D11*
%TO.P,U2,22,GPIO17*%
%TO.N,unconnected-(U2-GPIO17-Pad22)*%
X97420000Y-83820000D03*
D10*
X96520000Y-83820000D03*
D11*
%TO.P,U2,23,GND*%
%TO.N,Net-(SW1-Pad1)*%
X97420000Y-81280000D03*
D12*
X96520000Y-81280000D03*
D10*
%TO.P,U2,24,GPIO18*%
%TO.N,unconnected-(U2-GPIO18-Pad24)*%
X96520000Y-78740000D03*
D11*
X97420000Y-78740000D03*
%TO.P,U2,25,GPIO19*%
%TO.N,unconnected-(U2-GPIO19-Pad25)*%
X97420000Y-76200000D03*
D10*
X96520000Y-76200000D03*
D11*
%TO.P,U2,26,GPIO20*%
%TO.N,unconnected-(U2-GPIO20-Pad26)*%
X97420000Y-73660000D03*
D10*
X96520000Y-73660000D03*
%TO.P,U2,27,GPIO21*%
%TO.N,unconnected-(U2-GPIO21-Pad27)*%
X96520000Y-71120000D03*
D11*
X97420000Y-71120000D03*
D12*
%TO.P,U2,28,GND*%
%TO.N,unconnected-(U2-GND-Pad28)*%
X96520000Y-68580000D03*
D11*
X97420000Y-68580000D03*
D10*
%TO.P,U2,29,GPIO22*%
%TO.N,unconnected-(U2-GPIO22-Pad29)*%
X96520000Y-66040000D03*
D11*
X97420000Y-66040000D03*
%TO.P,U2,30,RUN*%
%TO.N,unconnected-(U2-RUN-Pad30)*%
X97420000Y-63500000D03*
D10*
X96520000Y-63500000D03*
%TO.P,U2,31,GPIO26_ADC0*%
%TO.N,unconnected-(U2-GPIO26_ADC0-Pad31)*%
X96520000Y-60960000D03*
D11*
X97420000Y-60960000D03*
D10*
%TO.P,U2,32,GPIO27_ADC1*%
%TO.N,unconnected-(U2-GPIO27_ADC1-Pad32)*%
X96520000Y-58420000D03*
D11*
X97420000Y-58420000D03*
%TO.P,U2,33,AGND*%
%TO.N,unconnected-(U2-AGND-Pad33)*%
X97420000Y-55880000D03*
D12*
X96520000Y-55880000D03*
D11*
%TO.P,U2,34,GPIO28_ADC2*%
%TO.N,unconnected-(U2-GPIO28_ADC2-Pad34)*%
X97420000Y-53340000D03*
D10*
X96520000Y-53340000D03*
D11*
%TO.P,U2,35,ADC_VREF*%
%TO.N,unconnected-(U2-ADC_VREF-Pad35)*%
X97420000Y-50800000D03*
D10*
X96520000Y-50800000D03*
%TO.P,U2,36,3V3*%
%TO.N,unconnected-(U2-3V3-Pad36)*%
X96520000Y-48260000D03*
D11*
X97420000Y-48260000D03*
%TO.P,U2,37,3V3_EN*%
%TO.N,unconnected-(U2-3V3_EN-Pad37)*%
X97420000Y-45720000D03*
D10*
X96520000Y-45720000D03*
D11*
%TO.P,U2,38,GND*%
%TO.N,unconnected-(U2-GND-Pad38)*%
X97420000Y-43180000D03*
D12*
X96520000Y-43180000D03*
D11*
%TO.P,U2,39,VSYS*%
%TO.N,unconnected-(U2-VSYS-Pad39)*%
X97420000Y-40640000D03*
D10*
X96520000Y-40640000D03*
%TO.P,U2,40,VBUS*%
%TO.N,unconnected-(U2-VBUS-Pad40)*%
X96520000Y-38100000D03*
D11*
X97420000Y-38100000D03*
D13*
%TO.P,U2,41,SWCLK*%
%TO.N,unconnected-(U2-SWCLK-Pad41)*%
X85090000Y-87030000D03*
D10*
X85090000Y-86130000D03*
D12*
%TO.P,U2,42,GND*%
%TO.N,unconnected-(U2-GND-Pad42)*%
X87630000Y-86130000D03*
D13*
X87630000Y-87030000D03*
D10*
%TO.P,U2,43,SWDIO*%
%TO.N,unconnected-(U2-SWDIO-Pad43)*%
X90170000Y-86130000D03*
D13*
X90170000Y-87030000D03*
%TD*%
D14*
%TO.P,SW8,1*%
%TO.N,Net-(SW1-Pad1)*%
X158750000Y-66350000D03*
%TO.P,SW8,2*%
%TO.N,Net-(U2-GPIO7)*%
X165100000Y-63810000D03*
%TD*%
%TO.P,SW7,1*%
%TO.N,Net-(SW1-Pad1)*%
X158750000Y-50800000D03*
%TO.P,SW7,2*%
%TO.N,Net-(U2-GPIO6)*%
X165100000Y-48260000D03*
%TD*%
%TO.P,SW6,1*%
%TO.N,Net-(SW1-Pad1)*%
X143200000Y-66350000D03*
%TO.P,SW6,2*%
%TO.N,Net-(U2-GPIO5)*%
X149550000Y-63810000D03*
%TD*%
%TO.P,SW5,1*%
%TO.N,Net-(SW1-Pad1)*%
X143200000Y-50800000D03*
%TO.P,SW5,2*%
%TO.N,Net-(U2-GPIO4)*%
X149550000Y-48260000D03*
%TD*%
%TO.P,SW4,1*%
%TO.N,Net-(SW1-Pad1)*%
X127650000Y-66350000D03*
%TO.P,SW4,2*%
%TO.N,Net-(U2-GPIO3)*%
X134000000Y-63810000D03*
%TD*%
%TO.P,SW3,1*%
%TO.N,Net-(SW1-Pad1)*%
X127650000Y-50800000D03*
%TO.P,SW3,2*%
%TO.N,Net-(U2-GPIO2)*%
X134000000Y-48260000D03*
%TD*%
%TO.P,SW2,1*%
%TO.N,Net-(SW1-Pad1)*%
X112100000Y-66350000D03*
%TO.P,SW2,2*%
%TO.N,Net-(U2-GPIO1)*%
X118450000Y-63810000D03*
%TD*%
%TO.P,SW1,1*%
%TO.N,Net-(SW1-Pad1)*%
X112100000Y-50800000D03*
%TO.P,SW1,2*%
%TO.N,Net-(U2-GPIO0)*%
X118450000Y-48260000D03*
%TD*%
D15*
%TO.N,Net-(U2-GPIO4)*%
X75700000Y-49370000D02*
X77130000Y-50800000D01*
X75955000Y-46895000D02*
X75700000Y-47150000D01*
X80405000Y-46895000D02*
X75955000Y-46895000D01*
X81200000Y-46100000D02*
X80405000Y-46895000D01*
X81200000Y-43300000D02*
X81200000Y-46100000D01*
X79715000Y-41815000D02*
X81200000Y-43300000D01*
X75765000Y-41815000D02*
X79715000Y-41815000D01*
X75765000Y-39465000D02*
X75765000Y-41815000D01*
X75930000Y-39300000D02*
X75765000Y-39465000D01*
X79890000Y-39300000D02*
X75930000Y-39300000D01*
X82265000Y-36925000D02*
X79890000Y-39300000D01*
X99495000Y-36925000D02*
X82265000Y-36925000D01*
X109000000Y-46430000D02*
X99495000Y-36925000D01*
X109000000Y-49400000D02*
X109000000Y-46430000D01*
X109175000Y-49225000D02*
X109000000Y-49400000D01*
X77130000Y-50800000D02*
X78740000Y-50800000D01*
X112752387Y-49225000D02*
X109175000Y-49225000D01*
X128302387Y-49225000D02*
X119712387Y-49225000D01*
X119101081Y-49836306D02*
X113363693Y-49836306D01*
X129088693Y-50011306D02*
X128302387Y-49225000D01*
X134476081Y-50011306D02*
X129088693Y-50011306D01*
X75700000Y-47150000D02*
X75700000Y-49370000D01*
X136227387Y-48260000D02*
X134476081Y-50011306D01*
X119712387Y-49225000D02*
X119101081Y-49836306D01*
X113363693Y-49836306D02*
X112752387Y-49225000D01*
X149550000Y-48260000D02*
X136227387Y-48260000D01*
%TO.N,Net-(U2-GPIO7)*%
X159062613Y-63810000D02*
X165100000Y-63810000D01*
X99495000Y-64675000D02*
X108480000Y-73660000D01*
X108480000Y-73660000D02*
X149212613Y-73660000D01*
X82455000Y-64675000D02*
X99495000Y-64675000D01*
X149212613Y-73660000D02*
X159062613Y-63810000D01*
X78740000Y-60960000D02*
X82455000Y-64675000D01*
%TO.N,Net-(U2-GPIO6)*%
X163517387Y-48260000D02*
X165100000Y-48260000D01*
X160020000Y-51757387D02*
X163517387Y-48260000D01*
X160020000Y-55567387D02*
X160020000Y-51757387D01*
X150202387Y-65385000D02*
X160020000Y-55567387D01*
X148897613Y-65385000D02*
X150202387Y-65385000D01*
X147975000Y-64462387D02*
X148897613Y-65385000D01*
X141914009Y-64462387D02*
X147975000Y-64462387D01*
X140541396Y-65835000D02*
X141914009Y-64462387D01*
X131763757Y-65835000D02*
X140541396Y-65835000D01*
X133835000Y-67906243D02*
X131763757Y-65835000D01*
X133835000Y-69873757D02*
X133835000Y-67906243D01*
X131543757Y-72165000D02*
X133835000Y-69873757D01*
X111064441Y-72165000D02*
X131543757Y-72165000D01*
X101034441Y-62135000D02*
X111064441Y-72165000D01*
X82455000Y-62135000D02*
X101034441Y-62135000D01*
X78740000Y-58420000D02*
X82455000Y-62135000D01*
%TO.N,Net-(U2-GPIO5)*%
X141930000Y-63810000D02*
X149550000Y-63810000D01*
X140355000Y-65385000D02*
X141930000Y-63810000D01*
X131502387Y-65385000D02*
X140355000Y-65385000D01*
X127630000Y-69257387D02*
X131502387Y-65385000D01*
X127630000Y-69407767D02*
X127630000Y-69257387D01*
X125322767Y-71715000D02*
X127630000Y-69407767D01*
X111250837Y-71715000D02*
X125322767Y-71715000D01*
X99130837Y-59595000D02*
X111250837Y-71715000D01*
X84995000Y-59595000D02*
X99130837Y-59595000D01*
X78740000Y-53340000D02*
X84995000Y-59595000D01*
%TO.N,Net-(U2-GPIO3)*%
X109220000Y-66970000D02*
X109220000Y-69047767D01*
X120507613Y-71265000D02*
X127962613Y-63810000D01*
X99305000Y-57055000D02*
X109220000Y-66970000D01*
X111437233Y-71265000D02*
X120507613Y-71265000D01*
X127962613Y-63810000D02*
X134000000Y-63810000D01*
X87535000Y-57055000D02*
X99305000Y-57055000D01*
X109220000Y-69047767D02*
X111437233Y-71265000D01*
X78740000Y-48260000D02*
X87535000Y-57055000D01*
%TO.N,Net-(U2-GPIO2)*%
X78740000Y-33020000D02*
X116840000Y-33020000D01*
X73660000Y-38100000D02*
X78740000Y-33020000D01*
X73660000Y-42250000D02*
X73660000Y-38100000D01*
X77130000Y-45720000D02*
X73660000Y-42250000D01*
X78740000Y-45720000D02*
X77130000Y-45720000D01*
X116840000Y-33020000D02*
X132080000Y-48260000D01*
%TO.N,Net-(U2-GPIO1)*%
X106990000Y-63810000D02*
X118450000Y-63810000D01*
X106680000Y-63500000D02*
X106990000Y-63810000D01*
X106680000Y-46650000D02*
X106680000Y-63500000D01*
X99495000Y-39465000D02*
X106680000Y-46650000D01*
X95345000Y-39465000D02*
X99495000Y-39465000D01*
X95020000Y-39790000D02*
X95345000Y-39465000D01*
X79590000Y-39790000D02*
X95020000Y-39790000D01*
X78740000Y-40640000D02*
X79590000Y-39790000D01*
%TO.N,Net-(U2-GPIO0)*%
X114300000Y-35560000D02*
X118450000Y-39710000D01*
X118450000Y-39710000D02*
X118450000Y-48260000D01*
X81280000Y-35560000D02*
X114300000Y-35560000D01*
X78740000Y-38100000D02*
X81280000Y-35560000D01*
%TD*%
M02*
